<svg width="363" height="238" viewBox="0 0 363 238" fill="none" xmlns="http://www.w3.org/2000/svg">
<g clip-path="url(#clip0_2_1234)">
<path d="M362.5 0H0.104156V238H362.5V0Z" fill="#CCEFF6"/>
<path d="M267.639 83.355V88.1346H199.571V83.355H267.639ZM212.849 85.9429C212.848 85.722 212.782 85.5062 212.658 85.3227C212.534 85.1392 212.358 84.9961 212.151 84.9116C211.945 84.8271 211.718 84.8052 211.499 84.8482C211.281 84.8912 211.079 84.9976 210.922 85.1541C210.764 85.3101 210.656 85.5092 210.613 85.7257C210.569 85.9422 210.591 86.1669 210.677 86.3708C210.762 86.575 210.906 86.7493 211.092 86.8723C211.277 86.995 211.496 87.0607 211.719 87.061C211.868 87.0618 212.016 87.0332 212.154 86.9773C212.291 86.9213 212.417 86.8386 212.522 86.7341C212.627 86.6299 212.711 86.5061 212.768 86.3696C212.824 86.2332 212.853 86.0868 212.852 85.9392L212.849 85.9429ZM208.405 85.9429C208.405 85.722 208.339 85.5062 208.214 85.3227C208.091 85.1392 207.914 84.9961 207.708 84.9116C207.502 84.8271 207.275 84.8052 207.056 84.8482C206.837 84.8912 206.637 84.9976 206.478 85.1537C206.321 85.3098 206.213 85.5085 206.17 85.725C206.126 85.9415 206.148 86.1661 206.233 86.3704C206.318 86.5743 206.463 86.7489 206.648 86.872C206.833 86.9947 207.051 87.0607 207.275 87.061C207.424 87.0618 207.572 87.0332 207.709 86.9773C207.848 86.9213 207.973 86.8386 208.078 86.7344C208.184 86.6299 208.267 86.5061 208.324 86.3696C208.381 86.2332 208.41 86.0868 208.409 85.9392L208.405 85.9429ZM203.961 85.9429C203.961 85.722 203.894 85.5062 203.77 85.3227C203.646 85.1392 203.47 84.9961 203.264 84.9116C203.058 84.8271 202.831 84.8052 202.612 84.8482C202.393 84.8912 202.192 84.9976 202.034 85.1541C201.876 85.3101 201.769 85.5092 201.725 85.7257C201.682 85.9422 201.704 86.1669 201.789 86.3708C201.874 86.575 202.019 86.7493 202.204 86.8723C202.39 86.995 202.608 87.0607 202.831 87.061C202.981 87.0621 203.128 87.034 203.267 86.978C203.405 86.922 203.531 86.8397 203.637 86.7352C203.742 86.631 203.826 86.5068 203.883 86.37C203.94 86.2336 203.969 86.0872 203.968 85.9392L203.961 85.9429Z" fill="#006B99"/>
<path d="M254.067 183.232H179.789L170.448 176.686L142.505 157.107L142.546 156.922C142.947 157.044 143.365 157.107 143.784 157.107H213.887C214.624 157.108 215.349 156.915 215.986 156.548L254.067 183.232ZM213.617 173.193H233.597L227.727 169.081L214.69 159.943H154.385L159.609 163.606L173.29 173.193H213.617ZM197.321 180.72H226.312L219.084 175.656H190.021L197.248 180.72H197.321Z" fill="#CCEFF6"/>
<path d="M233.596 173.193H213.617V173.077L208.17 169.261H227.6L227.726 169.082L233.596 173.193Z" fill="#CCEFF6"/>
<path d="M181.824 163.606L176.599 159.943H214.69L227.726 169.081L227.6 169.26H208.17L213.617 173.077V173.193H173.286L159.604 163.606H181.824Z" fill="#CCEFF6"/>
<path d="M226.311 180.72H197.321H197.248L190.02 175.656H219.011H219.084L226.311 180.72Z" fill="#F7CEDC"/>
<path d="M218.058 128.287V152.983C218.058 153.525 217.95 154.061 217.741 154.562C217.531 155.063 217.224 155.517 216.836 155.9C216.449 156.283 215.989 156.587 215.483 156.794C214.977 157.001 214.435 157.107 213.887 157.107H143.784C143.237 157.107 142.694 157.001 142.189 156.794C141.683 156.587 141.223 156.283 140.836 155.9C140.449 155.517 140.142 155.062 139.933 154.561C139.724 154.061 139.616 153.524 139.616 152.983V103.594C139.616 102.499 140.055 101.45 140.837 100.677C141.618 99.9029 142.679 99.468 143.784 99.4673H213.887C214.435 99.4673 214.977 99.5737 215.484 99.7813C215.99 99.9885 216.45 100.293 216.837 100.676C217.225 101.059 217.532 101.514 217.741 102.015C217.951 102.516 218.059 103.053 218.058 103.595V128.287ZM214.884 150.727V105.846C214.884 104.986 214.539 104.162 213.925 103.554C213.311 102.946 212.478 102.605 211.609 102.605H146.062C145.194 102.605 144.361 102.946 143.747 103.554C143.133 104.162 142.788 104.986 142.788 105.846V150.727C142.788 151.586 143.133 152.411 143.747 153.018C144.361 153.626 145.194 153.967 146.062 153.967H211.609C212.477 153.967 213.31 153.626 213.924 153.018C214.538 152.411 214.883 151.586 214.883 150.727H214.884Z" fill="#CCEFF6"/>
<path d="M214.883 105.846V119.72H214.261V119.487C214.261 115.527 212.007 113.591 209.252 113.591H208.957C208.779 113.592 208.609 113.522 208.483 113.398C208.356 113.274 208.285 113.105 208.284 112.929V111.883C208.715 111.673 209.079 111.347 209.333 110.943C209.587 110.539 209.722 110.073 209.722 109.597V108.176C209.722 107.5 209.451 106.851 208.967 106.372C208.484 105.894 207.828 105.625 207.145 105.625C206.461 105.625 205.805 105.894 205.322 106.372C204.838 106.851 204.567 107.5 204.567 108.176V109.597C204.567 110.073 204.702 110.539 204.956 110.943C205.21 111.347 205.574 111.673 206.005 111.883V112.933C206.004 113.108 205.934 113.276 205.808 113.401C205.682 113.526 205.512 113.598 205.333 113.6C204.566 113.574 203.802 113.707 203.09 113.989C202.378 114.272 201.734 114.698 201.198 115.241C200.662 115.784 200.246 116.432 199.976 117.143C199.708 117.854 199.591 118.612 199.635 119.37H199.571V102.607H211.609C212.477 102.607 213.31 102.948 213.924 103.556C214.538 104.163 214.883 104.987 214.883 105.846Z" fill="#F7CEDC"/>
<path d="M214.186 152.527L214.326 152.537C214.026 152.977 213.622 153.338 213.149 153.587C212.676 153.836 212.148 153.966 211.612 153.966H199.571V153.606H199.635C199.591 152.847 199.708 152.089 199.976 151.378C200.246 150.667 200.662 150.019 201.198 149.477C201.734 148.933 202.378 148.507 203.09 148.224C203.802 147.942 204.566 147.809 205.333 147.835C205.421 147.835 205.508 147.818 205.59 147.785C205.671 147.752 205.746 147.703 205.808 147.642C205.871 147.58 205.92 147.507 205.954 147.426C205.988 147.346 206.006 147.259 206.006 147.172V146.123C205.574 145.912 205.211 145.587 204.957 145.183C204.703 144.778 204.568 144.312 204.567 143.836V142.417C204.567 141.74 204.839 141.091 205.322 140.613C205.806 140.134 206.462 139.866 207.145 139.866C207.829 139.866 208.485 140.134 208.968 140.613C209.452 141.091 209.723 141.74 209.723 142.417V143.836C209.723 144.312 209.588 144.778 209.334 145.183C209.08 145.587 208.717 145.912 208.285 146.123V147.174C208.286 147.35 208.357 147.519 208.483 147.643C208.609 147.767 208.78 147.837 208.958 147.837H209.253C211.714 147.834 213.773 149.379 214.186 152.527Z" fill="#006B99"/>
<path d="M214.262 136.453V136.789H199.571V136.327H199.635C199.591 135.57 199.708 134.811 199.977 134.1C200.246 133.389 200.662 132.742 201.198 132.199C201.734 131.656 202.378 131.23 203.09 130.947C203.802 130.665 204.566 130.532 205.333 130.558C205.511 130.558 205.683 130.487 205.809 130.363C205.935 130.238 206.005 130.07 206.006 129.894V128.846C205.574 128.635 205.211 128.31 204.957 127.905C204.703 127.501 204.568 127.035 204.567 126.558V125.139C204.567 124.462 204.839 123.813 205.322 123.335C205.806 122.857 206.462 122.588 207.145 122.588C207.829 122.588 208.485 122.857 208.968 123.335C209.452 123.813 209.723 124.462 209.723 125.139V126.561C209.723 127.037 209.588 127.504 209.334 127.908C209.08 128.312 208.717 128.638 208.285 128.849V129.892C208.286 130.068 208.357 130.237 208.483 130.361C208.609 130.485 208.78 130.555 208.958 130.555H209.253C212.008 130.558 214.262 132.496 214.262 136.453Z" fill="#006B99"/>
<path d="M214.262 119.491V119.724H199.571V119.364H199.635C199.592 118.606 199.709 117.848 199.979 117.138C200.248 116.428 200.664 115.781 201.2 115.239C201.736 114.696 202.38 114.271 203.092 113.988C203.803 113.706 204.566 113.574 205.333 113.599C205.511 113.599 205.682 113.529 205.809 113.405C205.934 113.281 206.005 113.112 206.006 112.937V111.883C205.574 111.673 205.211 111.347 204.957 110.943C204.703 110.538 204.568 110.072 204.567 109.596V108.176C204.567 107.499 204.839 106.851 205.322 106.372C205.806 105.894 206.462 105.625 207.145 105.625C207.829 105.625 208.485 105.894 208.968 106.372C209.452 106.851 209.723 107.499 209.723 108.176V109.596C209.723 110.072 209.588 110.538 209.334 110.943C209.08 111.347 208.717 111.673 208.285 111.883V112.932C208.286 113.108 208.357 113.277 208.483 113.401C208.609 113.525 208.78 113.595 208.958 113.595H209.253C212.008 113.599 214.262 115.533 214.262 119.491Z" fill="#006B99"/>
<path d="M207.278 84.8242C207.501 84.8238 207.72 84.8887 207.906 85.0114C208.092 85.1338 208.237 85.3084 208.323 85.5123C208.409 85.7165 208.432 85.9416 208.388 86.1584C208.345 86.3753 208.237 86.5744 208.079 86.7308C207.921 86.8873 207.72 86.994 207.501 87.037C207.282 87.08 207.054 87.0578 206.848 86.9733C206.642 86.8884 206.466 86.7449 206.341 86.561C206.218 86.3768 206.151 86.1607 206.152 85.9397C206.152 85.6439 206.271 85.3606 206.482 85.1516C206.693 84.9425 206.979 84.825 207.278 84.8242Z" fill="#FFCEB6"/>
<path d="M202.835 84.8242C203.058 84.8238 203.277 84.8891 203.463 85.0118C203.649 85.1345 203.794 85.3087 203.879 85.513C203.965 85.7173 203.987 85.9419 203.944 86.1588C203.9 86.3757 203.793 86.5747 203.635 86.7312C203.477 86.8876 203.276 86.994 203.056 87.037C202.837 87.08 202.61 87.0578 202.404 86.9729C202.198 86.8884 202.021 86.7449 201.897 86.561C201.774 86.3768 201.708 86.1607 201.708 85.9397C201.708 85.6439 201.827 85.3603 202.038 85.1512C202.25 84.9421 202.536 84.8246 202.835 84.8242Z" fill="#CCEFF6"/>
<path d="M188.287 51.6245V56.4086H94.8171V51.6245H188.287ZM108.102 54.2132C108.102 53.9923 108.035 53.7765 107.911 53.593C107.787 53.4095 107.611 53.2664 107.405 53.1819C107.198 53.0977 106.971 53.0755 106.753 53.1185C106.534 53.1619 106.333 53.2683 106.175 53.4243C106.017 53.5804 105.909 53.7795 105.866 53.996C105.822 54.2129 105.844 54.4371 105.93 54.6414C106.015 54.8453 106.16 55.0199 106.345 55.1426C106.531 55.2653 106.749 55.3309 106.972 55.3313C107.12 55.3317 107.268 55.3028 107.405 55.2468C107.542 55.1904 107.667 55.1081 107.772 55.0043C107.877 54.9005 107.96 54.7771 108.016 54.6414C108.073 54.5057 108.102 54.36 108.102 54.2132ZM103.658 54.2132C103.658 53.9926 103.592 53.7765 103.468 53.593C103.344 53.4095 103.168 53.2664 102.962 53.1823C102.755 53.0977 102.529 53.0755 102.31 53.1185C102.091 53.1615 101.89 53.2679 101.732 53.424C101.574 53.58 101.466 53.7791 101.423 53.9956C101.379 54.2121 101.401 54.4364 101.486 54.6407C101.572 54.8449 101.716 55.0192 101.901 55.1422C102.087 55.2649 102.305 55.3309 102.528 55.3313C102.677 55.3317 102.823 55.3031 102.961 55.2468C103.098 55.1908 103.223 55.1085 103.328 55.0047C103.433 54.9009 103.516 54.7775 103.573 54.6418C103.63 54.5057 103.659 54.3604 103.658 54.2132ZM99.2141 54.2132C99.2141 53.9923 99.1477 53.7765 99.0235 53.593C98.8993 53.4095 98.723 53.2664 98.5169 53.1819C98.3108 53.0977 98.0839 53.0755 97.865 53.1185C97.646 53.1619 97.4452 53.2683 97.2874 53.4243C97.1292 53.5804 97.022 53.7795 96.9782 53.996C96.9348 54.2129 96.9571 54.4371 97.0424 54.6414C97.1277 54.8453 97.2723 55.0199 97.4577 55.1426C97.6434 55.2653 97.8612 55.3309 98.0847 55.3313C98.233 55.3317 98.3799 55.3028 98.5173 55.2468C98.6543 55.1904 98.7789 55.1081 98.8838 55.0043C98.9888 54.9005 99.0718 54.7771 99.1288 54.6414C99.1855 54.5057 99.2145 54.36 99.2141 54.2132Z" fill="#006B99"/>
<path d="M185.065 120.631V122.827L182.868 121.747C183.094 121.377 183.419 121.078 183.807 120.881C184.195 120.684 184.63 120.597 185.065 120.631Z" fill="#FFCEB6"/>
<path d="M176.6 159.943L181.824 163.606H159.605L154.38 159.943H176.6Z" fill="#CCEFF6"/>
<path d="M166.696 75.9448C166.777 76.0027 166.844 76.0768 166.894 76.1625C166.943 76.2481 166.974 76.343 166.984 76.4412C166.994 76.5395 166.983 76.6388 166.951 76.7323C166.919 76.8257 166.868 76.9117 166.801 76.9843L164.799 79.0763L162.73 81.2365L158.839 85.3077L158.61 85.3392C158.521 85.2424 158.418 85.159 158.305 85.0908C158.056 84.9355 157.771 84.8469 157.477 84.8335V84.8272L162.764 79.2238L165.765 76.0357C165.832 75.9652 165.912 75.9089 166.001 75.8703C166.09 75.8322 166.186 75.8121 166.283 75.8125C166.431 75.8129 166.576 75.8592 166.696 75.9448Z" fill="#006B99"/>
<path d="M162.194 111.55L164.583 112.728C164.117 114.164 162.193 113.692 162.193 113.692L162.194 111.55Z" fill="#FFCEB6"/>
<path d="M161.138 68.3765V70.573L158.944 69.4927C159.169 69.1238 159.493 68.8243 159.881 68.6274C160.268 68.4302 160.703 68.3435 161.138 68.3765Z" fill="#FFCEB6"/>
<path d="M159.601 88.6215C159.944 89.5612 158.887 90.5118 158.887 90.5118C158.078 89.962 156.412 90.7127 155.932 91.6109C154.477 91.4163 154.513 90.6656 155.022 89.959C155.37 89.4993 155.805 89.1101 156.301 88.8124C157.44 88.1347 159.258 87.6828 159.601 88.6215Z" fill="#FFCEB6"/>
<path d="M158.458 86.9412C159.754 87.6678 159.601 88.6217 159.601 88.6217C159.258 87.683 157.44 88.1349 156.3 88.8107C155.803 89.1084 155.369 89.4977 155.021 89.9577L154.855 89.8469C154.723 89.8399 154.591 89.8198 154.462 89.7876C153.389 89.5236 154.027 88.5624 154.071 88.493C154.643 88.2784 155.183 87.9922 155.681 87.6415C155.824 87.5321 155.946 87.3968 156.039 87.243L156.143 87.2582C156.143 87.2582 157.592 86.4545 158.458 86.9412Z" fill="#FFCEB6"/>
<path d="M155.932 91.6094C156.411 90.7093 158.077 89.9604 158.887 90.5102C159.696 91.0603 159.239 92.558 157.322 94.7067C156.863 95.3039 156.274 95.7918 155.599 96.1343C154.923 96.4773 154.179 96.6659 153.421 96.6871L152.057 99.4296V99.4675H145.035V99.4315L147.965 93.2898L150.684 88.1591C150.86 87.8774 151.112 87.6498 151.412 87.5029C152.61 86.8649 153.906 86.4297 155.25 86.2151C155.395 86.2058 155.541 86.2206 155.681 86.2592C155.779 86.2885 155.869 86.3404 155.943 86.4101C156.017 86.4798 156.073 86.5654 156.108 86.6607C156.143 86.7556 156.155 86.8575 156.143 86.958C156.131 87.0585 156.096 87.1545 156.04 87.2394C155.947 87.3932 155.825 87.5285 155.681 87.6379C155.184 87.9886 154.643 88.2748 154.073 88.4894C153.898 88.5587 153.733 88.6247 153.587 88.6785L153.612 88.7471L149.08 93.4908C149.012 93.563 148.961 93.6487 148.929 93.7421C148.898 93.8355 148.887 93.9345 148.896 94.0324C148.907 94.1302 148.937 94.2251 148.987 94.3104C149.036 94.396 149.104 94.4698 149.184 94.5276C149.306 94.6133 149.451 94.6593 149.6 94.6589C149.697 94.6589 149.793 94.6392 149.882 94.6007C149.971 94.5625 150.051 94.5062 150.118 94.4357L154.349 90.0071L154.463 89.784C154.592 89.8166 154.723 89.8362 154.857 89.8433L155.021 89.9541C154.513 90.6644 154.478 91.4151 155.932 91.6094Z" fill="#FFCEB6"/>
<path d="M158.611 85.3424C159.205 86.0212 158.459 86.9413 158.459 86.9413C157.592 86.4542 156.148 87.2553 156.148 87.2553L156.043 87.2401C156.099 87.1556 156.134 87.0592 156.146 86.9587C156.158 86.8583 156.146 86.7563 156.111 86.6614C156.077 86.5662 156.02 86.4805 155.946 86.4108C155.872 86.3411 155.782 86.2892 155.684 86.2599C155.544 86.2214 155.398 86.2066 155.253 86.2158C155.478 85.8203 155.799 85.487 156.188 85.2464C156.577 85.0062 157.02 84.866 157.478 84.8394C157.772 84.8527 158.057 84.9413 158.306 85.0966C158.419 85.1641 158.522 85.2468 158.611 85.3424Z" fill="#FFCEB6"/>
<path d="M158.307 153.604V153.965H146.062C145.531 153.966 145.007 153.838 144.537 153.593C144.067 153.348 143.665 152.992 143.365 152.558L143.412 152.526C143.825 149.376 145.885 147.833 148.342 147.833H148.64C148.818 147.833 148.988 147.763 149.114 147.639C149.239 147.515 149.31 147.346 149.31 147.171V146.121C148.879 145.911 148.516 145.585 148.262 145.181C148.009 144.777 147.875 144.31 147.876 143.835V142.415C147.869 142.076 147.931 141.739 148.058 141.424C148.184 141.109 148.373 140.823 148.613 140.58C148.853 140.338 149.139 140.146 149.455 140.015C149.771 139.884 150.11 139.816 150.453 139.816C150.795 139.816 151.134 139.884 151.45 140.015C151.766 140.146 152.053 140.338 152.293 140.58C152.532 140.823 152.721 141.109 152.848 141.424C152.974 141.739 153.036 142.076 153.03 142.415V143.835C153.03 144.311 152.896 144.777 152.641 145.181C152.387 145.585 152.024 145.911 151.593 146.121V147.174C151.593 147.35 151.664 147.518 151.789 147.642C151.915 147.766 152.085 147.836 152.262 147.836C153.029 147.811 153.793 147.943 154.506 148.225C155.218 148.508 155.863 148.934 156.399 149.477C156.936 150.02 157.352 150.668 157.621 151.379C157.891 152.09 158.008 152.849 157.964 153.607L158.307 153.604Z" fill="#006B99"/>
<path d="M158.307 136.789V153.604H157.965C158.008 152.846 157.892 152.087 157.623 151.376C157.353 150.665 156.937 150.017 156.401 149.474C155.864 148.932 155.219 148.505 154.507 148.222C153.794 147.94 153.03 147.807 152.263 147.834C152.086 147.833 151.916 147.764 151.79 147.64C151.665 147.515 151.594 147.347 151.594 147.171V146.122C152.025 145.911 152.388 145.586 152.642 145.182C152.896 144.778 153.031 144.311 153.031 143.835V142.416C153.018 141.748 152.741 141.111 152.259 140.643C151.777 140.175 151.129 139.913 150.454 139.913C149.778 139.913 149.13 140.175 148.648 140.643C148.166 141.111 147.889 141.748 147.876 142.416V143.835C147.876 144.311 148.01 144.777 148.263 145.181C148.517 145.585 148.88 145.911 149.311 146.122V147.174C149.311 147.35 149.24 147.518 149.115 147.643C148.989 147.767 148.819 147.836 148.641 147.836H148.343C145.887 147.836 143.826 149.382 143.413 152.53L143.366 152.561C142.99 152.023 142.79 151.384 142.791 150.729V136.789H158.307Z" fill="#F7CEDC"/>
<path d="M158.307 136.328V136.789H143.337V136.453C143.337 132.493 145.59 130.558 148.339 130.558H148.638C148.816 130.558 148.986 130.487 149.111 130.363C149.237 130.239 149.307 130.07 149.307 129.894V128.846C148.876 128.635 148.514 128.309 148.26 127.905C148.007 127.501 147.872 127.034 147.873 126.559V125.139C147.866 124.8 147.928 124.463 148.055 124.148C148.182 123.833 148.37 123.546 148.611 123.304C148.85 123.062 149.137 122.87 149.452 122.739C149.768 122.608 150.108 122.54 150.45 122.54C150.793 122.54 151.132 122.608 151.448 122.739C151.764 122.87 152.05 123.062 152.29 123.304C152.53 123.546 152.719 123.833 152.845 124.148C152.972 124.463 153.034 124.8 153.028 125.139V126.561C153.027 127.037 152.893 127.504 152.639 127.908C152.385 128.312 152.022 128.638 151.59 128.849V129.892C151.591 130.067 151.661 130.236 151.787 130.36C151.912 130.484 152.082 130.554 152.26 130.555C153.027 130.529 153.791 130.661 154.503 130.944C155.215 131.226 155.86 131.652 156.397 132.195C156.933 132.738 157.349 133.386 157.619 134.097C157.888 134.808 158.005 135.567 157.961 136.325L158.307 136.328Z" fill="#006B99"/>
<path d="M158.307 119.366V119.726H143.337V119.492C143.337 115.532 145.59 113.596 148.339 113.596H148.638C148.815 113.596 148.985 113.526 149.111 113.402C149.236 113.278 149.307 113.11 149.307 112.934V111.883C148.876 111.672 148.514 111.346 148.26 110.942C148.007 110.538 147.873 110.072 147.873 109.596V108.176C147.866 107.837 147.928 107.5 148.055 107.185C148.182 106.87 148.37 106.583 148.611 106.341C148.85 106.099 149.137 105.907 149.452 105.776C149.768 105.645 150.108 105.577 150.45 105.577C150.793 105.577 151.132 105.645 151.448 105.776C151.764 105.907 152.05 106.099 152.29 106.341C152.53 106.583 152.719 106.87 152.845 107.185C152.972 107.5 153.034 107.837 153.028 108.176V109.596C153.027 110.072 152.893 110.538 152.639 110.943C152.385 111.347 152.022 111.672 151.59 111.883V112.932C151.59 113.108 151.661 113.276 151.787 113.4C151.912 113.525 152.082 113.595 152.26 113.595C153.027 113.569 153.791 113.701 154.503 113.984C155.216 114.266 155.86 114.692 156.397 115.235C156.934 115.779 157.35 116.426 157.619 117.137C157.888 117.848 158.005 118.607 157.961 119.366H158.307Z" fill="#006B99"/>
<path d="M154.462 89.7873L154.348 90.0105L150.121 94.4391C150.054 94.5095 149.974 94.5659 149.885 94.6041C149.796 94.6426 149.7 94.6626 149.603 94.6626C149.454 94.6626 149.309 94.6167 149.187 94.531C149.107 94.4732 149.039 94.3994 148.99 94.3142C148.94 94.2285 148.909 94.134 148.899 94.0357C148.89 93.9379 148.901 93.8389 148.932 93.7455C148.964 93.6521 149.015 93.5664 149.083 93.4941L153.615 88.7504L153.59 88.6819C153.736 88.6281 153.901 88.5621 154.076 88.4932C154.032 88.5621 153.39 89.5238 154.462 89.7873Z" fill="#006B99"/>
<path d="M138.268 59.2959L140.661 60.474C140.198 61.9087 138.271 61.4383 138.271 61.4383L138.268 59.2959Z" fill="#FFCEB6"/>
<path d="M139.616 105.336V115.408H135.319V115.303L132.389 111.883C132.973 110.538 133.285 109.093 133.306 107.63C133.306 105.93 132.176 103.809 131.201 102.293L135.319 99.4673L139.616 105.336Z" fill="#FFCEB6"/>
<path d="M130.344 56.4092V91.7544L130.299 91.8445C129.696 91.5753 129.062 91.3803 128.411 91.2639L128.439 91.1227V56.4092H130.344Z" fill="#CCEFF6"/>
<path d="M123.706 83.4455C124.224 84.4661 123.649 85.9497 122.558 86.0847C122.17 86.1381 121.776 86.0754 121.424 85.9045C121.874 85.245 122.218 84.5199 122.443 83.7558C122.577 83.4381 122.795 83.0926 123.008 82.6533C123.31 82.8483 123.552 83.1226 123.706 83.4455Z" fill="#006B99"/>
<path d="M120.078 90.032L123.586 91.1256C123.586 91.1256 121.656 93.2365 116.453 93.5127C113.191 93.6198 109.966 92.7905 107.168 91.1256L111.587 89.3191L108.721 86.3794C108.74 86.3794 108.343 83.2468 108.363 83.2442C108.908 83.1749 112.752 86.5521 113.066 86.1058L113.918 86.3C114.752 86.8669 115.665 87.3113 116.628 87.6198L116.66 87.6298C116.939 87.7332 119.04 88.4965 119.995 88.7853H120.013L120.022 88.9581L120.078 90.032Z" fill="#FFCEB6"/>
<path d="M121.341 83.0464C121.241 83.1176 121.133 83.1799 121.021 83.2318C121.021 83.2318 119.93 82.996 119.529 82.9615C119.209 82.9337 117.393 83.022 116.694 83.0624C116.523 83.0687 116.421 83.075 116.421 83.075C116.876 83.4598 117.355 83.8145 117.856 84.1371C118.125 84.3321 118.435 84.4629 118.763 84.5197C119.092 84.5764 119.428 84.5575 119.748 84.464C120.345 84.0689 120.881 83.5918 121.341 83.0464ZM107.572 78.6175C108.07 78.0777 108.762 78.3754 109.209 78.6772C109.669 79.0064 110.227 79.1743 110.794 79.1543C113.784 78.9596 114.415 74.54 114.602 72.9692C114.602 72.9692 118.701 73.4085 120.024 74.0558C120.151 74.1188 120.278 74.1882 120.402 74.2575C121.701 75.0126 122.661 76.2289 123.088 77.6592L123.056 77.7489C122.973 77.9847 122.9 78.1415 122.9 78.1415C123.291 78.9715 123.436 79.8939 123.319 80.8021C123.199 81.4739 122.987 82.1259 122.688 82.7402C122.405 83.3345 122.107 83.7986 121.929 84.2264C121.625 85.2537 121.162 86.2283 120.557 87.1158C120.38 87.3252 120.166 87.5021 119.926 87.6378C119.699 87.7653 119.449 87.8494 119.189 87.8854C118.478 87.9673 117.758 87.9173 117.065 87.7378C116.933 87.7063 116.793 87.6719 116.663 87.6315L116.631 87.6214C115.668 87.3126 114.755 86.8685 113.92 86.3021L112.435 86.1074C112.724 85.7582 112.899 85.33 112.937 84.88C112.975 84.4303 112.874 83.9792 112.648 83.5873C112.102 82.7395 111.708 82.3999 110.323 83.0068C109.989 83.1784 109.713 83.4438 109.53 83.7701L109.435 84.1968C108.505 83.6666 106.433 80.8959 107.321 79.0112C107.382 78.867 107.467 78.7343 107.572 78.6175Z" fill="#FFCEB6"/>
<path d="M114.596 72.9533C114.598 72.9585 114.598 72.9641 114.596 72.9693C114.4 74.6564 113.682 79.6196 110.098 79.1265C109.846 79.0898 109.608 78.9864 109.41 78.8273C108.997 78.5007 108.152 77.9795 107.568 78.6179C107.464 78.7347 107.377 78.867 107.314 79.0101C106.425 80.8952 108.095 82.4407 109.025 82.9708L109.774 83.4802C109.608 83.7597 109.517 84.0763 109.508 84.4003C109.499 84.7243 109.573 85.0454 109.723 85.3338C110.114 86.4237 111.009 86.3002 111.692 86.3166L111.584 89.3194L107.165 91.1259C105.234 91.4465 103.361 92.043 101.604 92.8964C99.957 88.367 105.378 80.8878 106.886 76.487C107.045 76.0281 106.851 72.6671 109.337 69.8938C110.596 68.8888 112.072 68.1826 113.65 67.8297C113.832 67.7829 114.007 67.7411 114.174 67.7047C115.825 67.3978 117.531 67.6217 119.044 68.3431C120.557 69.0649 121.797 70.2467 122.583 71.7155C124.71 76.004 123.084 77.6562 123.084 77.6562C122.658 76.2264 121.698 75.0101 120.399 74.2549C119.271 73.3333 117.936 72.6923 116.507 72.3854C114.555 72.074 114.583 72.8436 114.596 72.9533Z" fill="#006B99"/>
<path d="M120.4 74.2574C120.276 74.1881 120.149 74.1188 120.021 74.0558C118.698 73.4085 114.6 72.9692 114.6 72.9692C114.602 72.964 114.602 72.9584 114.6 72.9533C114.587 72.8432 114.559 72.0735 116.51 72.3879C117.939 72.6956 119.272 73.3366 120.4 74.2574Z" fill="#006B99"/>
<path d="M119.952 87.6854L120.012 88.7853H119.995C119.04 88.4961 116.939 87.7328 116.66 87.6294C116.793 87.6698 116.933 87.7043 117.063 87.7358C117.755 87.9152 118.475 87.9653 119.187 87.8833C119.446 87.8474 119.695 87.7632 119.922 87.6357L119.952 87.6854Z" fill="#006B99"/>
<path d="M111.524 86.1623C111.11 86.2113 110.692 86.1134 110.345 85.8862C109.997 85.6589 109.743 85.3171 109.625 84.9212C109.541 84.685 109.51 84.4333 109.537 84.1838C109.564 83.9347 109.646 83.6945 109.778 83.481C109.906 83.27 110.097 83.1043 110.324 83.0068C110.521 82.8923 110.739 82.82 110.966 82.7951C111.193 82.7707 111.423 82.7936 111.64 82.863C111.857 82.9323 112.057 83.0465 112.226 83.1981C112.395 83.3493 112.53 83.5343 112.622 83.7412C112.759 84.037 112.816 84.3629 112.788 84.6869C112.761 85.0113 112.648 85.323 112.463 85.5918C112.364 85.7442 112.232 85.8736 112.078 85.9714C111.924 86.0693 111.75 86.1334 111.568 86.1598C111.554 86.159 111.54 86.1623 111.524 86.1623Z" fill="#CCEFF6"/>
<path d="M107.168 106.476L106.889 115.408H97.6713V106.103L107.168 106.476Z" fill="#FFCEB6"/>
<path d="M102.528 53.0981C102.751 53.0978 102.969 53.163 103.156 53.2857C103.341 53.4084 103.486 53.5827 103.572 53.7869C103.658 53.9912 103.68 54.2159 103.636 54.4327C103.593 54.6496 103.485 54.8487 103.328 55.0051C103.17 55.1616 102.968 55.2679 102.749 55.311C102.53 55.354 102.303 55.3317 102.097 55.2468C101.89 55.1623 101.714 55.0188 101.59 54.8346C101.466 54.6507 101.4 54.4346 101.401 54.2136C101.401 53.9178 101.52 53.6342 101.731 53.4251C101.942 53.216 102.229 53.0985 102.528 53.0981Z" fill="#FFCEB6"/>
<path d="M98.0843 53.0981C98.3078 53.0978 98.5263 53.163 98.7121 53.2857C98.8982 53.4084 99.0431 53.5827 99.1284 53.7869C99.2141 53.9912 99.2368 54.2159 99.1934 54.4327C99.15 54.6496 99.0424 54.8487 98.8842 55.0051C98.7264 55.1616 98.5248 55.2679 98.3059 55.311C98.0866 55.354 97.8597 55.3317 97.6532 55.2468C97.4471 55.1623 97.2708 55.0188 97.1466 54.8346C97.0228 54.6507 96.9571 54.4346 96.9575 54.2136C96.9575 53.9178 97.0764 53.6342 97.2878 53.4251C97.4988 53.216 97.7853 53.0985 98.0843 53.0981Z" fill="#CCEFF6"/>
<path d="M215.986 156.548C215.348 156.915 214.624 157.108 213.887 157.107H143.784C143.237 157.107 142.694 157.001 142.189 156.794C141.683 156.587 141.223 156.283 140.836 155.9C140.449 155.517 140.142 155.062 139.933 154.561C139.724 154.061 139.616 153.524 139.616 152.983V103.594C139.616 102.499 140.055 101.45 140.837 100.677C141.618 99.9029 142.679 99.468 143.784 99.4673H213.887C214.435 99.4673 214.977 99.5737 215.484 99.7813C215.99 99.9885 216.45 100.293 216.837 100.676C217.225 101.059 217.532 101.514 217.741 102.015C217.951 102.516 218.059 103.053 218.058 103.595V152.985C218.058 153.706 217.867 154.415 217.503 155.04C217.139 155.666 216.616 156.185 215.986 156.548Z" stroke="#006B99" stroke-width="3.23435" stroke-linecap="round" stroke-linejoin="round"/>
<path d="M158.307 153.966H146.062C145.194 153.966 144.361 153.624 143.747 153.016C143.133 152.409 142.788 151.584 142.788 150.725V105.845C142.788 104.986 143.133 104.162 143.747 103.554C144.361 102.946 145.194 102.605 146.062 102.605H211.609C212.477 102.605 213.31 102.946 213.924 103.554C214.538 104.162 214.883 104.986 214.883 105.845V150.727C214.883 151.586 214.538 152.41 213.924 153.018C213.31 153.626 212.477 153.967 211.609 153.967H158.307V153.966Z" stroke="#006B99" stroke-width="3.23435" stroke-linecap="round" stroke-linejoin="round"/>
<path d="M174.729 101.3H180.135" stroke="#006B99" stroke-width="3.23435" stroke-linecap="round" stroke-linejoin="round"/>
<path d="M158.305 102.607V119.366V119.724V136.328V136.79V153.605V153.966" stroke="#006B99" stroke-width="3.23435" stroke-linecap="round" stroke-linejoin="round"/>
<path d="M199.571 102.607V119.366V119.724V136.328V136.79V153.605V153.966" stroke="#006B99" stroke-width="3.23435" stroke-linecap="round" stroke-linejoin="round"/>
<path d="M142.79 119.724H143.337H158.306" stroke="#006B99" stroke-width="3.23435" stroke-linecap="round" stroke-linejoin="round"/>
<path d="M142.79 136.789H143.337H158.306" stroke="#006B99" stroke-width="3.23435" stroke-linecap="round" stroke-linejoin="round"/>
<path d="M157.964 119.366C158.007 118.608 157.89 117.85 157.62 117.139C157.351 116.429 156.934 115.781 156.398 115.239C155.862 114.696 155.217 114.27 154.505 113.988C153.793 113.706 153.029 113.574 152.262 113.6C152.085 113.599 151.915 113.53 151.789 113.405C151.664 113.281 151.593 113.113 151.593 112.937V111.883C152.024 111.673 152.387 111.347 152.641 110.943C152.896 110.539 153.03 110.073 153.03 109.597V108.176C153.017 107.508 152.74 106.871 152.259 106.404C151.777 105.935 151.128 105.673 150.453 105.673C149.778 105.673 149.129 105.935 148.647 106.404C148.166 106.871 147.888 107.508 147.876 108.176V109.597C147.875 110.072 148.01 110.539 148.263 110.943C148.517 111.346 148.879 111.672 149.31 111.883V112.933C149.31 113.108 149.239 113.277 149.114 113.401C148.988 113.525 148.818 113.595 148.64 113.595H148.342C145.59 113.595 143.34 115.533 143.34 119.491" stroke="#006B99" stroke-width="3.23435" stroke-linecap="round" stroke-linejoin="round"/>
<path d="M157.964 136.328C158.007 135.57 157.891 134.811 157.621 134.1C157.352 133.389 156.935 132.741 156.399 132.198C155.863 131.655 155.218 131.229 154.506 130.947C153.793 130.664 153.029 130.532 152.262 130.558C152.085 130.557 151.915 130.487 151.789 130.363C151.664 130.239 151.593 130.07 151.593 129.894V128.846C152.024 128.636 152.387 128.31 152.641 127.907C152.895 127.503 153.03 127.037 153.031 126.561V125.139C153.018 124.471 152.741 123.834 152.259 123.367C151.777 122.898 151.129 122.636 150.453 122.636C149.778 122.636 149.13 122.898 148.648 123.367C148.166 123.834 147.889 124.471 147.876 125.139V126.561C147.876 127.037 148.01 127.503 148.263 127.908C148.517 128.312 148.88 128.638 149.311 128.849V129.892C149.311 130.068 149.24 130.236 149.115 130.36C148.989 130.485 148.819 130.555 148.641 130.555H148.343C145.591 130.555 143.34 132.493 143.34 136.451" stroke="#006B99" stroke-width="3.23435" stroke-linecap="round" stroke-linejoin="round"/>
<path d="M157.963 153.605C158.007 152.847 157.891 152.088 157.621 151.377C157.352 150.665 156.936 150.018 156.399 149.475C155.863 148.932 155.218 148.505 154.506 148.223C153.793 147.94 153.029 147.808 152.262 147.834C152.085 147.834 151.914 147.764 151.789 147.64C151.664 147.516 151.593 147.347 151.593 147.172V146.122C152.024 145.912 152.387 145.586 152.641 145.182C152.895 144.778 153.03 144.312 153.03 143.836V142.416C153.017 141.748 152.74 141.112 152.258 140.643C151.776 140.175 151.128 139.913 150.453 139.913C149.777 139.913 149.129 140.175 148.647 140.643C148.165 141.112 147.888 141.748 147.875 142.416V143.836C147.875 144.311 148.009 144.778 148.262 145.182C148.516 145.586 148.879 145.912 149.31 146.122V147.174C149.31 147.35 149.239 147.518 149.113 147.643C148.988 147.767 148.818 147.837 148.64 147.837H148.342C145.886 147.837 143.825 149.382 143.412 152.53" stroke="#006B99" stroke-width="3.23435" stroke-linecap="round" stroke-linejoin="round"/>
<path d="M214.884 119.724H214.262H199.609" stroke="#006B99" stroke-width="3.23435" stroke-linecap="round" stroke-linejoin="round"/>
<path d="M214.884 136.789H214.262H199.609" stroke="#006B99" stroke-width="3.23435" stroke-linecap="round" stroke-linejoin="round"/>
<path d="M199.635 119.366C199.591 118.608 199.708 117.85 199.978 117.139C200.247 116.429 200.663 115.782 201.199 115.24C201.735 114.697 202.38 114.271 203.091 113.988C203.803 113.706 204.566 113.574 205.332 113.599C205.511 113.599 205.682 113.529 205.809 113.405C205.934 113.281 206.005 113.112 206.005 112.937V111.883C205.574 111.673 205.211 111.347 204.957 110.943C204.703 110.538 204.568 110.072 204.568 109.596V108.176C204.568 107.499 204.839 106.851 205.323 106.372C205.806 105.894 206.461 105.625 207.145 105.625C207.829 105.625 208.484 105.894 208.968 106.372C209.452 106.851 209.723 107.499 209.723 108.176V109.596C209.723 110.072 209.588 110.538 209.334 110.943C209.079 111.347 208.716 111.673 208.285 111.883V112.932C208.285 113.108 208.357 113.277 208.483 113.401C208.609 113.525 208.78 113.595 208.958 113.595H209.253C212.008 113.595 214.262 115.533 214.262 119.491" stroke="#006B99" stroke-width="3.23435" stroke-linecap="round" stroke-linejoin="round"/>
<path d="M199.635 136.327C199.591 135.57 199.708 134.811 199.977 134.1C200.246 133.389 200.662 132.742 201.198 132.199C201.734 131.656 202.378 131.23 203.09 130.947C203.802 130.665 204.566 130.532 205.333 130.558C205.511 130.558 205.683 130.487 205.809 130.362C205.935 130.238 206.005 130.07 206.006 129.894V128.846C205.574 128.635 205.211 128.31 204.957 127.905C204.703 127.501 204.568 127.035 204.567 126.558V125.139C204.567 124.462 204.839 123.813 205.322 123.335C205.806 122.857 206.462 122.588 207.145 122.588C207.829 122.588 208.485 122.857 208.968 123.335C209.451 123.813 209.723 124.462 209.723 125.139V126.561C209.723 127.037 209.588 127.504 209.334 127.908C209.08 128.312 208.717 128.638 208.285 128.848V129.892C208.286 130.068 208.357 130.237 208.483 130.361C208.609 130.485 208.78 130.555 208.958 130.555H209.253C212.008 130.555 214.262 132.493 214.262 136.451" stroke="#006B99" stroke-width="3.23435" stroke-linecap="round" stroke-linejoin="round"/>
<path d="M199.635 153.605C199.591 152.847 199.708 152.088 199.976 151.377C200.246 150.666 200.662 150.019 201.198 149.476C201.734 148.933 202.378 148.506 203.09 148.224C203.802 147.941 204.566 147.808 205.333 147.834C205.421 147.835 205.508 147.817 205.59 147.784C205.671 147.751 205.746 147.703 205.808 147.641C205.871 147.579 205.92 147.506 205.954 147.426C205.988 147.345 206.005 147.259 206.006 147.172V146.122C205.574 145.912 205.211 145.586 204.957 145.182C204.703 144.778 204.568 144.312 204.567 143.836V142.416C204.567 141.74 204.839 141.091 205.322 140.612C205.806 140.134 206.462 139.865 207.145 139.865C207.829 139.865 208.485 140.134 208.968 140.612C209.452 141.091 209.723 141.74 209.723 142.416V143.836C209.723 144.312 209.588 144.778 209.334 145.182C209.08 145.586 208.717 145.912 208.285 146.122V147.174C208.286 147.35 208.357 147.519 208.483 147.643C208.609 147.767 208.78 147.837 208.958 147.837H209.253C211.709 147.837 213.773 149.382 214.186 152.53" stroke="#006B99" stroke-width="3.23435" stroke-linecap="round" stroke-linejoin="round"/>
<path d="M199.571 99.4654V88.1344V83.3511H267.643V88.1344V128.286H218.059" stroke="#006B99" stroke-width="3.23435" stroke-linecap="round" stroke-linejoin="round"/>
<path d="M199.571 88.1343H267.643" stroke="#006B99" stroke-width="3.23435" stroke-linecap="round" stroke-linejoin="round"/>
<path d="M203.968 85.9397C203.968 86.1607 203.903 86.3768 203.779 86.5607C203.655 86.7445 203.479 86.888 203.273 86.9729C203.067 87.0578 202.84 87.08 202.621 87.0374C202.401 86.9944 202.2 86.8884 202.042 86.7323C201.884 86.5762 201.776 86.3771 201.732 86.1607C201.689 85.9438 201.711 85.7191 201.796 85.5149C201.881 85.3106 202.026 85.136 202.212 85.0133C202.397 84.8902 202.615 84.8246 202.839 84.8242C202.987 84.8242 203.133 84.8528 203.27 84.9087C203.407 84.9647 203.532 85.0466 203.637 85.1504C203.742 85.2539 203.825 85.377 203.882 85.5123C203.939 85.6476 203.968 85.7929 203.968 85.9397Z" stroke="#006B99" stroke-width="3.23435" stroke-linecap="round" stroke-linejoin="round"/>
<path d="M208.409 85.9397C208.409 86.1607 208.343 86.3764 208.22 86.5607C208.096 86.7445 207.92 86.888 207.714 86.9729C207.507 87.0574 207.281 87.08 207.062 87.0374C206.843 86.9944 206.641 86.8884 206.483 86.7327C206.325 86.5766 206.217 86.3775 206.173 86.161C206.13 85.9445 206.151 85.7199 206.236 85.5156C206.322 85.3113 206.466 85.1367 206.651 85.0137C206.837 84.8906 207.055 84.8246 207.278 84.8242C207.427 84.8239 207.573 84.8524 207.711 84.9084C207.848 84.9643 207.972 85.0463 208.077 85.1501C208.182 85.2535 208.265 85.3766 208.322 85.5123C208.379 85.6476 208.409 85.7929 208.409 85.9397Z" stroke="#006B99" stroke-width="3.23435" stroke-linecap="round" stroke-linejoin="round"/>
<path d="M212.852 85.9397C212.853 86.1607 212.787 86.3768 212.663 86.5607C212.539 86.7445 212.363 86.888 212.157 86.9729C211.951 87.0578 211.724 87.08 211.505 87.0374C211.286 86.9944 211.084 86.8884 210.926 86.7323C210.768 86.5762 210.66 86.3772 210.616 86.1607C210.573 85.9438 210.595 85.7191 210.68 85.5149C210.766 85.3106 210.91 85.136 211.096 85.0133C211.281 84.8902 211.499 84.8246 211.723 84.8242C211.871 84.8239 212.018 84.8524 212.155 84.9084C212.292 84.9643 212.416 85.0463 212.521 85.1501C212.626 85.2535 212.709 85.3766 212.766 85.5123C212.823 85.6476 212.852 85.7929 212.852 85.9397Z" stroke="#006B99" stroke-width="3.23435" stroke-linecap="round" stroke-linejoin="round"/>
<path d="M139.616 115.408H135.318H130.344H106.889H97.6713H94.8204V56.4086V51.6245H188.286V56.4086V99.4655" stroke="#006B99" stroke-width="3.23435" stroke-linecap="round" stroke-linejoin="round"/>
<path d="M94.8204 56.4092H128.439H130.344H188.286" stroke="#006B99" stroke-width="3.23435" stroke-linecap="round" stroke-linejoin="round"/>
<path d="M99.2141 54.2136C99.2145 54.4346 99.1484 54.6507 99.025 54.8346C98.9012 55.0185 98.7249 55.1619 98.5188 55.2468C98.3127 55.3317 98.0858 55.354 97.8665 55.3113C97.6475 55.2683 97.4463 55.1623 97.2881 55.0062C97.13 54.8502 97.0224 54.6511 96.9786 54.4346C96.9348 54.2177 96.9567 53.9931 97.042 53.7888C97.1273 53.5845 97.2719 53.4099 97.4572 53.2872C97.643 53.1641 97.8612 53.0985 98.0843 53.0981C98.3836 53.0981 98.6705 53.2153 98.8827 53.4244C99.0944 53.6335 99.2137 53.9174 99.2141 54.2136Z" stroke="#006B99" stroke-width="3.23435" stroke-linecap="round" stroke-linejoin="round"/>
<path d="M103.658 54.2136C103.659 54.4346 103.593 54.6503 103.469 54.8342C103.345 55.0185 103.169 55.1619 102.963 55.2464C102.757 55.3313 102.53 55.354 102.311 55.3113C102.092 55.2683 101.891 55.1623 101.732 55.0066C101.575 54.8505 101.467 54.6514 101.423 54.4349C101.379 54.2185 101.401 53.9938 101.486 53.7895C101.571 53.5853 101.715 53.4107 101.901 53.2876C102.086 53.1645 102.304 53.0985 102.528 53.0981C102.676 53.0981 102.823 53.1267 102.96 53.1827C103.097 53.2386 103.221 53.3206 103.326 53.424C103.432 53.5278 103.515 53.6509 103.572 53.7862C103.629 53.9215 103.658 54.0668 103.658 54.2136Z" stroke="#006B99" stroke-width="3.23435" stroke-linecap="round" stroke-linejoin="round"/>
<path d="M108.101 54.2136C108.102 54.4346 108.036 54.6507 107.912 54.8346C107.789 55.0185 107.613 55.1619 107.406 55.2468C107.2 55.3317 106.973 55.354 106.754 55.3113C106.535 55.2683 106.334 55.1623 106.175 55.0062C106.018 54.8502 105.91 54.6511 105.866 54.4346C105.822 54.2177 105.844 53.9931 105.929 53.7888C106.015 53.5845 106.159 53.4099 106.345 53.2872C106.53 53.1641 106.749 53.0985 106.972 53.0981C107.271 53.0981 107.558 53.2153 107.77 53.4244C107.982 53.6335 108.101 53.9174 108.101 54.2136Z" stroke="#006B99" stroke-width="3.23435" stroke-linecap="round" stroke-linejoin="round"/>
<path d="M170.448 176.687L142.505 157.107V158.187C142.504 158.922 142.682 159.646 143.024 160.299C143.365 160.952 143.86 161.514 144.466 161.938L177.666 185.202C179.05 186.169 180.702 186.689 182.396 186.69H250.719C251.159 186.691 251.595 186.605 252.002 186.438C252.409 186.272 252.778 186.028 253.09 185.72C253.401 185.412 253.648 185.046 253.816 184.643C253.985 184.241 254.072 183.809 254.072 183.374V183.235" stroke="#006B99" stroke-width="3.23435" stroke-linecap="round" stroke-linejoin="round"/>
<path d="M215.986 156.548L254.067 183.232H179.789" stroke="#006B99" stroke-width="3.23435" stroke-linecap="round" stroke-linejoin="round"/>
<path d="M210.291 96.2773H256.921" stroke="#006B99" stroke-width="3.23435" stroke-linecap="round" stroke-linejoin="round"/>
<path d="M218.544 106.643H256.921" stroke="#006B99" stroke-width="3.23435" stroke-linecap="round" stroke-linejoin="round"/>
<path d="M218.544 117.009H256.921" stroke="#006B99" stroke-width="3.23435" stroke-linecap="round" stroke-linejoin="round"/>
<path d="M121.976 143.93H137.416" stroke="#006B99" stroke-width="3.23435" stroke-linecap="round" stroke-linejoin="round"/>
<path d="M220.379 143.93H242.166" stroke="#006B99" stroke-width="3.23435" stroke-linecap="round" stroke-linejoin="round"/>
<path d="M170.448 176.687L179.79 183.232V186.188" stroke="#006B99" stroke-width="3.23435" stroke-linecap="round" stroke-linejoin="round"/>
<path d="M197.248 180.72L190.02 175.656H219.011" stroke="#F7CEDC" stroke-width="3.23435" stroke-linecap="round" stroke-linejoin="round"/>
<path d="M219.084 175.656L226.312 180.72H197.321" stroke="#006B99" stroke-width="3.23435" stroke-linecap="round" stroke-linejoin="round"/>
<path d="M233.597 173.193H213.617H173.286L159.605 163.606L154.38 159.943H176.6H214.69L227.727 169.081L233.597 173.193Z" stroke="#006B99" stroke-width="3.23435" stroke-linecap="round" stroke-linejoin="round"/>
<path d="M159.604 163.606H181.824H211.729" stroke="#006B99" stroke-width="3.23435" stroke-linecap="round" stroke-linejoin="round"/>
<path d="M175.476 169.261H208.17H227.6" stroke="#006B99" stroke-width="3.23435" stroke-linecap="round" stroke-linejoin="round"/>
<path d="M176.6 159.943L181.825 163.606L187.271 167.423" stroke="#006B99" stroke-width="3.23435" stroke-linecap="round" stroke-linejoin="round"/>
<path d="M202.946 165.598L208.171 169.26L213.617 173.077" stroke="#006B99" stroke-width="3.23435" stroke-linecap="round" stroke-linejoin="round"/>
<path d="M186.385 132.862C187.252 132.862 188.11 133.031 188.911 133.359C189.711 133.688 190.438 134.169 191.051 134.775C191.663 135.382 192.149 136.102 192.48 136.894C192.812 137.686 192.982 138.535 192.982 139.392C192.984 139.413 192.984 139.434 192.982 139.455C192.982 141.186 192.287 142.846 191.051 144.07C189.814 145.294 188.136 145.981 186.387 145.981C184.638 145.981 182.961 145.294 181.724 144.07C180.487 142.846 179.793 141.186 179.793 139.455C179.791 139.434 179.791 139.413 179.793 139.392C179.792 137.661 180.487 136.001 181.723 134.776C182.959 133.552 184.637 132.863 186.385 132.862Z" stroke="#006B99" stroke-width="3.23435" stroke-linecap="round" stroke-linejoin="round"/>
<path d="M186.386 128.724V132.863V139.457V145.921V149.562" stroke="#006B99" stroke-width="3.23435" stroke-linecap="round" stroke-linejoin="round"/>
<path d="M196.915 139.457H192.978H186.386H179.793H175.856" stroke="#006B99" stroke-width="3.23435" stroke-linecap="round" stroke-linejoin="round"/>
<path d="M162.373 79.104C162.413 77.3998 163.125 75.7786 164.358 74.5875C165.59 73.3964 167.244 72.7295 168.967 72.7295C170.69 72.7295 172.344 73.3964 173.576 74.5875C174.808 75.7786 175.521 77.3998 175.561 79.104C175.563 79.1262 175.563 79.1484 175.561 79.1707C175.546 80.7084 174.982 82.1913 173.969 83.3579C172.956 84.5242 171.56 85.2997 170.026 85.5474C168.493 85.7947 166.919 85.4985 165.585 84.7107C164.25 83.9229 163.24 82.694 162.731 81.2408" stroke="#006B99" stroke-width="3.23435" stroke-linecap="round" stroke-linejoin="round"/>
<path d="M168.969 68.436V72.5766V79.1701V85.6314V89.2751" stroke="#006B99" stroke-width="3.23435" stroke-linecap="round" stroke-linejoin="round"/>
<path d="M162.699 79.1704H162.373H158.439" stroke="#006B99" stroke-width="3.23435" stroke-linecap="round" stroke-linejoin="round"/>
<path d="M179.497 79.1704H175.561H168.968H164.902" stroke="#006B99" stroke-width="3.23435" stroke-linecap="round" stroke-linejoin="round"/>
<path d="M162.194 113.692V117.911L172.634 116.698L185.065 115.254V120.631V122.827L182.868 121.743L172.634 116.698L164.584 112.728L162.194 111.55V113.692Z" stroke="#006B99" stroke-width="3.23435" stroke-linecap="round" stroke-linejoin="round"/>
<path d="M162.194 113.689C162.194 113.689 164.118 114.161 164.584 112.725" stroke="#006B99" stroke-width="3.23435" stroke-linecap="round" stroke-linejoin="round"/>
<path d="M182.866 121.743C183.092 121.375 183.417 121.075 183.805 120.879C184.193 120.683 184.628 120.597 185.062 120.631" stroke="#006B99" stroke-width="3.23435" stroke-linecap="round" stroke-linejoin="round"/>
<path d="M138.268 61.4383V65.6596L148.711 64.4444L161.137 62.999V68.3773V70.5727L158.941 69.4887L148.711 64.4444L140.657 60.474L138.268 59.2959V61.4383Z" stroke="#006B99" stroke-width="3.23435" stroke-linecap="round" stroke-linejoin="round"/>
<path d="M138.268 61.4379C138.268 61.4379 140.194 61.9087 140.657 60.4736" stroke="#006B99" stroke-width="3.23435" stroke-linecap="round" stroke-linejoin="round"/>
<path d="M158.944 69.4929C159.17 69.1244 159.495 68.8256 159.883 68.6291C160.271 68.433 160.706 68.347 161.14 68.3815" stroke="#006B99" stroke-width="3.23435" stroke-linecap="round" stroke-linejoin="round"/>
<path d="M175.843 136.381H168.104V133.24V128.723H172.67H175.843V136.381Z" stroke="#006B99" stroke-width="3.23435" stroke-linecap="round" stroke-linejoin="round"/>
<path d="M172.67 133.24H168.105H164.931V125.582H172.67V128.723V133.24Z" stroke="#006B99" stroke-width="3.23435" stroke-linecap="round" stroke-linejoin="round"/>
<path d="M164.931 125.582L168.105 128.723" stroke="#006B99" stroke-width="3.23435" stroke-linecap="round" stroke-linejoin="round"/>
<path d="M172.67 125.582L175.844 128.723" stroke="#006B99" stroke-width="3.23435" stroke-linecap="round" stroke-linejoin="round"/>
<path d="M172.67 133.24L175.844 136.381" stroke="#006B99" stroke-width="3.23435" stroke-linecap="round" stroke-linejoin="round"/>
<path d="M164.931 133.24L168.105 136.381" stroke="#006B99" stroke-width="3.23435" stroke-linecap="round" stroke-linejoin="round"/>
<path d="M147.281 87.0015H139.542V83.8601V79.3433H144.108H147.281V87.0015Z" stroke="#006B99" stroke-width="3.23435" stroke-linecap="round" stroke-linejoin="round"/>
<path d="M144.108 83.8599H139.543H136.369V76.2017H144.108V79.3431V83.8599Z" stroke="#006B99" stroke-width="3.23435" stroke-linecap="round" stroke-linejoin="round"/>
<path d="M136.369 76.2017L139.543 79.3431" stroke="#006B99" stroke-width="3.23435" stroke-linecap="round" stroke-linejoin="round"/>
<path d="M144.108 76.2017L147.282 79.3431" stroke="#006B99" stroke-width="3.23435" stroke-linecap="round" stroke-linejoin="round"/>
<path d="M144.108 83.8599L147.282 87.0013" stroke="#006B99" stroke-width="3.23435" stroke-linecap="round" stroke-linejoin="round"/>
<path d="M136.369 83.8599L139.543 87.0013" stroke="#006B99" stroke-width="3.23435" stroke-linecap="round" stroke-linejoin="round"/>
<path d="M164.614 146.179C164.614 146.179 163.315 146.701 163.249 147.612C163.184 148.522 164.37 148.525 164.896 148.004C164.916 147.383 164.85 146.761 164.7 146.157C164.646 145.949 164.568 145.747 164.468 145.557C163.976 144.646 163.151 144.775 162.855 145.394" stroke="#006B99" stroke-width="3.23435" stroke-linecap="round" stroke-linejoin="round"/>
<path d="M189.729 108.469C189.729 108.469 188.43 108.99 188.364 109.904C188.299 110.819 189.485 110.819 190.012 110.297C190.031 109.674 189.965 109.052 189.815 108.447C189.762 108.239 189.684 108.039 189.583 107.85C189.091 106.936 188.266 107.068 187.971 107.686" stroke="#006B99" stroke-width="3.23435" stroke-linecap="round" stroke-linejoin="round"/>
<path d="M166.517 145.921H168.104" stroke="#006B99" stroke-width="3.23435" stroke-linecap="round" stroke-linejoin="round"/>
<path d="M166.517 147.178H168.104" stroke="#006B99" stroke-width="3.23435" stroke-linecap="round" stroke-linejoin="round"/>
<path d="M169.586 145.528C169.665 144.538 172.053 144.52 171.593 146.235C171.278 147.401 169.633 148.356 169.633 148.356H172.326" stroke="#006B99" stroke-width="3.23435" stroke-linecap="round" stroke-linejoin="round"/>
<path d="M180.564 107.767C180.646 106.782 183.034 106.759 182.565 108.471C182.251 109.641 180.61 110.595 180.61 110.595H183.299" stroke="#006B99" stroke-width="3.23435" stroke-linecap="round" stroke-linejoin="round"/>
<path d="M175.063 106.499C175.117 105.836 176.72 105.823 176.409 106.973C176.199 107.752 175.098 108.395 175.098 108.395H176.9" stroke="#006B99" stroke-width="3.23435" stroke-linecap="round" stroke-linejoin="round"/>
<path d="M174.079 147.781C175.171 149.031 176.838 148.243 176.272 146.971C175.706 145.699 174.181 146.609 174.079 147.781Z" stroke="#006B99" stroke-width="3.23435" stroke-linecap="round" stroke-linejoin="round"/>
<path d="M175.082 144.329C174.428 145.016 172.99 146.527 174.082 147.78" stroke="#006B99" stroke-width="3.23435" stroke-linecap="round" stroke-linejoin="round"/>
<path d="M185.436 107.51V108.513V109.515" stroke="#006B99" stroke-width="3.23435" stroke-linecap="round" stroke-linejoin="round"/>
<path d="M184.307 108.512H185.436H186.484" stroke="#006B99" stroke-width="3.23435" stroke-linecap="round" stroke-linejoin="round"/>
<path d="M179.668 106.015C178.732 106.298 177.955 108.06 178.247 109.3C178.324 109.829 178.54 110.329 178.871 110.751C179.202 111.174 179.638 111.504 180.137 111.709" stroke="#006B99" stroke-width="3.23435" stroke-linecap="round" stroke-linejoin="round"/>
<path d="M190.716 106.015C191.652 106.298 192.43 108.06 192.137 109.3C192.059 109.829 191.844 110.328 191.513 110.75C191.182 111.171 190.747 111.501 190.249 111.707" stroke="#006B99" stroke-width="3.23435" stroke-linecap="round" stroke-linejoin="round"/>
<path d="M128.439 56.4092V91.126" stroke="#006B99" stroke-width="3.23435" stroke-linecap="round" stroke-linejoin="round"/>
<path d="M130.344 56.4092V91.7544" stroke="#006B99" stroke-width="3.23435" stroke-linecap="round" stroke-linejoin="round"/>
<path d="M107.168 104.887V106.477L97.6713 106.103L96.6271 106.063C96.6271 106.063 96.6974 98.7364 98.652 95.4234C99.3829 94.3286 100.404 93.4541 101.604 92.8965C103.362 92.0417 105.237 91.4437 107.168 91.1223C109.966 92.7876 113.191 93.6165 116.454 93.5097C121.657 93.2332 123.586 91.1223 123.586 91.1223C125.193 90.944 126.817 90.9914 128.411 91.2635C129.062 91.3803 129.696 91.5753 130.299 91.8445C130.759 92.0483 131.183 92.3242 131.554 92.6615C133.363 94.5199 134.95 96.5781 136.283 98.7961L135.316 99.4619L131.201 102.293" stroke="#006B99" stroke-width="3.23435" stroke-linecap="round" stroke-linejoin="round"/>
<path d="M97.6713 106.103V115.408" stroke="#006B99" stroke-width="3.23435" stroke-linecap="round" stroke-linejoin="round"/>
<path d="M107.169 106.477L106.889 115.408" stroke="#006B99" stroke-width="3.23435" stroke-linecap="round" stroke-linejoin="round"/>
<path d="M129.801 100.333C129.801 100.333 130.455 101.137 131.201 102.293C132.176 103.809 133.303 105.93 133.305 107.63C133.285 109.093 132.973 110.538 132.388 111.883C131.874 113.113 131.186 114.265 130.344 115.303" stroke="#006B99" stroke-width="3.23435" stroke-linecap="round" stroke-linejoin="round"/>
<path d="M122.592 106.103C122.592 106.103 122.834 110.557 121.155 112.558" stroke="#006B99" stroke-width="3.23435" stroke-linecap="round" stroke-linejoin="round"/>
<path d="M121.987 78.9067C121.698 78.7825 121.39 78.7058 121.077 78.6798C120.782 78.6187 120.476 78.6372 120.191 78.7339" stroke="#006B99" stroke-width="3.23435" stroke-linecap="round" stroke-linejoin="round"/>
<path d="M115.311 78.5841C115.666 78.4973 116.026 78.4343 116.39 78.3954C116.686 78.3383 116.992 78.3613 117.276 78.4618" stroke="#006B99" stroke-width="3.23435" stroke-linecap="round" stroke-linejoin="round"/>
<path d="M119.777 77.7056C119.655 77.961 119.593 78.2405 119.596 78.523C119.598 78.8055 119.666 79.0835 119.793 79.3367C119.98 79.9588 120.58 80.6213 120.475 81.2088C120.369 81.7968 119.275 82.0315 118.634 81.8587" stroke="#006B99" stroke-width="3.23435" stroke-linecap="round" stroke-linejoin="round"/>
<path d="M116.628 87.62C115.665 87.3116 114.753 86.8671 113.918 86.3003" stroke="#006B99" stroke-width="3.23435" stroke-linecap="round" stroke-linejoin="round"/>
<path d="M122.685 82.7383C122.403 83.3322 122.104 83.7967 121.926 84.2241C121.622 85.2514 121.159 86.226 120.555 87.1135C120.376 87.3237 120.16 87.5005 119.918 87.6358C119.691 87.7633 119.441 87.8471 119.183 87.8831C118.471 87.9654 117.751 87.9153 117.059 87.7355C116.925 87.704 116.786 87.6699 116.656 87.6295" stroke="#006B99" stroke-width="3.23435" stroke-linecap="round" stroke-linejoin="round"/>
<path d="M123.053 77.7471C122.97 77.9832 122.897 78.1397 122.897 78.1397C123.288 78.9697 123.433 79.892 123.316 80.8003C123.195 81.472 122.98 82.1241 122.68 82.7384" stroke="#006B99" stroke-width="3.23435" stroke-linecap="round" stroke-linejoin="round"/>
<path d="M114.511 77.458C115.311 76.9639 116.25 76.7377 117.19 76.8137C118.218 76.9865 118.276 77.3383 118.282 77.3539" stroke="#006B99" stroke-width="3.23435" stroke-linecap="round" stroke-linejoin="round"/>
<path d="M122.716 76.9142C122.415 76.8853 122.111 76.9035 121.815 76.9673C121.374 77.0503 120.939 77.1682 120.517 77.3194" stroke="#006B99" stroke-width="3.23435" stroke-linecap="round" stroke-linejoin="round"/>
<path d="M121.346 83.0437C121.245 83.1149 121.138 83.1771 121.025 83.229C120.586 83.4111 120.115 83.5086 119.638 83.5152C118.645 83.473 117.659 83.3221 116.698 83.0652C116.492 83.0148 116.349 82.9751 116.302 82.9644" stroke="#006B99" stroke-width="3.23435" stroke-linecap="round" stroke-linejoin="round"/>
<path d="M116.283 82.9614C116.283 82.9614 116.337 83.0055 116.423 83.0804C116.878 83.4649 117.357 83.8196 117.858 84.1425C118.127 84.3375 118.437 84.4684 118.765 84.5251C119.093 84.5818 119.43 84.5626 119.75 84.4691C120.348 84.0728 120.885 83.5935 121.346 83.0463" stroke="#006B99" stroke-width="3.23435" stroke-linecap="round" stroke-linejoin="round"/>
<path d="M119.952 87.686L120.012 88.7859L120.022 88.9587L120.08 90.0323" stroke="#006B99" stroke-width="3.23435" stroke-linecap="round" stroke-linejoin="round"/>
<path d="M123.586 91.1258L120.078 90.0322" stroke="#006B99" stroke-width="3.23435" stroke-linecap="round" stroke-linejoin="round"/>
<path d="M111.695 86.3164L111.587 89.3192L107.168 91.1257" stroke="#006B99" stroke-width="3.23435" stroke-linecap="round" stroke-linejoin="round"/>
<path d="M109.657 79.0415C109.657 79.0415 108.372 77.7469 107.572 78.6174C107.467 78.7345 107.381 78.8669 107.317 79.01C106.429 80.8947 108.327 82.9644 109.773 83.4801" stroke="#006B99" stroke-width="3.23435" stroke-linecap="round" stroke-linejoin="round"/>
<path d="M107.572 78.6177V78.6247" stroke="#006B99" stroke-width="3.23435" stroke-linecap="round" stroke-linejoin="round"/>
<path d="M112.463 85.5907C112.65 85.3227 112.763 85.0109 112.791 84.6862C112.819 84.3618 112.76 84.0356 112.622 83.7401C112.53 83.534 112.394 83.3494 112.225 83.1985C112.055 83.0472 111.856 82.9334 111.639 82.8641C111.422 82.7948 111.193 82.7718 110.966 82.7959C110.74 82.8204 110.521 82.8919 110.324 83.0057C110.098 83.1051 109.907 83.2708 109.778 83.4799C109.646 83.6934 109.564 83.9336 109.537 84.1831C109.51 84.4322 109.541 84.6839 109.625 84.9201C109.744 85.3149 109.999 85.656 110.346 85.8828C110.693 86.1101 111.111 86.2087 111.524 86.1616C111.537 86.1616 111.549 86.1616 111.562 86.1616C111.745 86.1353 111.92 86.0708 112.075 85.9726C112.231 85.8739 112.363 85.7438 112.463 85.5907Z" stroke="#006B99" stroke-width="3.23435" stroke-linecap="round" stroke-linejoin="round"/>
<path d="M121.421 85.9052C121.772 86.0776 122.167 86.1403 122.554 86.0854C123.646 85.9501 124.221 84.465 123.704 83.4463C123.55 83.1223 123.307 82.8479 123.002 82.6548" stroke="#006B99" stroke-width="3.23435" stroke-linecap="round" stroke-linejoin="round"/>
<path d="M116.419 83.0779C116.419 83.0779 116.524 83.0716 116.692 83.0653C117.391 83.0245 119.206 82.9363 119.526 82.9644C119.924 82.9959 121.019 83.2343 121.019 83.2343" stroke="#006B99" stroke-width="3.23435" stroke-linecap="round" stroke-linejoin="round"/>
<path d="M116.628 87.6201L116.66 87.6301C116.939 87.7336 119.041 88.4969 119.996 88.7856" stroke="#006B99" stroke-width="3.23435" stroke-linecap="round" stroke-linejoin="round"/>
<path d="M114.596 72.9533C114.583 72.8432 114.555 72.0735 116.506 72.3879C117.936 72.6952 119.27 73.3362 120.398 74.2574L120.407 74.2663" stroke="#006B99" stroke-width="3.23435" stroke-linecap="round" stroke-linejoin="round"/>
<path d="M110.759 70.2331C110.759 70.2331 114.149 70.0414 114.597 72.953C114.598 72.9586 114.598 72.9641 114.597 72.9693" stroke="#006B99" stroke-width="3.23435" stroke-linecap="round" stroke-linejoin="round"/>
<path d="M109.734 79.0226C113.918 80.5833 114.391 74.7219 114.597 72.9691C114.597 72.9691 118.69 73.4084 120.018 74.0557C120.145 74.1187 120.273 74.188 120.397 74.2574C121.695 75.0125 122.655 76.2288 123.082 77.6591C123.082 77.6591 124.707 76.0071 122.58 71.718C121.794 70.2492 120.555 69.0673 119.042 68.3455C117.529 67.6241 115.822 67.4002 114.171 67.7072C114.002 67.7435 113.828 67.7854 113.647 67.8321C112.069 68.185 110.594 68.8912 109.334 69.8963C106.848 72.6696 107.042 76.0305 106.884 76.4894C105.376 80.8902 99.9544 88.3713 101.601 92.8988" stroke="#006B99" stroke-width="3.23435" stroke-linecap="round" stroke-linejoin="round"/>
<path d="M154.075 88.4899C154.646 88.2753 155.187 87.9891 155.684 87.6384C155.828 87.529 155.949 87.3937 156.043 87.2399C156.099 87.155 156.134 87.0589 156.146 86.9585C156.157 86.858 156.146 86.7561 156.111 86.6612C156.076 86.5659 156.019 86.4803 155.945 86.4106C155.871 86.3409 155.782 86.289 155.684 86.2597C155.544 86.2211 155.398 86.2063 155.252 86.2156C153.909 86.4302 152.612 86.8654 151.415 87.5034C151.114 87.6499 150.862 87.8775 150.687 88.1596L147.966 93.2903L145.035 99.4312" stroke="#006B99" stroke-width="3.23435" stroke-linecap="round" stroke-linejoin="round"/>
<path d="M152.98 88.8991C152.98 88.8991 153.23 88.8172 153.586 88.6819C153.732 88.6281 153.897 88.5621 154.071 88.4932" stroke="#006B99" stroke-width="3.23435" stroke-linecap="round" stroke-linejoin="round"/>
<path d="M135.318 99.4653L139.616 105.336" stroke="#006B99" stroke-width="3.23435" stroke-linecap="round" stroke-linejoin="round"/>
<path d="M132.389 111.883L135.319 115.303" stroke="#006B99" stroke-width="3.23435" stroke-linecap="round" stroke-linejoin="round"/>
<path d="M152.056 99.4314L153.421 96.6889C154.179 96.6677 154.923 96.4787 155.598 96.1361C156.273 95.7936 156.862 95.3057 157.322 94.7085C159.238 92.5598 159.692 91.061 158.886 90.512C158.08 89.963 156.41 90.7129 155.931 91.6112C155.452 92.5094 155.82 93.7346 158.147 92.0134" stroke="#006B99" stroke-width="3.23435" stroke-linecap="round" stroke-linejoin="round"/>
<path d="M158.887 90.5103C158.887 90.5103 159.944 89.5613 159.601 88.6201C159.258 87.6784 157.44 88.1329 156.3 88.8091C155.804 89.1068 155.37 89.4961 155.021 89.9558C154.513 90.6623 154.476 91.413 155.931 91.6073" stroke="#006B99" stroke-width="3.23435" stroke-linecap="round" stroke-linejoin="round"/>
<path d="M159.601 88.6215C159.601 88.6215 159.753 87.6677 158.458 86.9411C157.592 86.4543 156.147 87.2555 156.147 87.2555" stroke="#006B99" stroke-width="3.23435" stroke-linecap="round" stroke-linejoin="round"/>
<path d="M154.076 88.4902C154.031 88.5596 153.393 89.5212 154.466 89.7848C154.595 89.8174 154.727 89.8371 154.86 89.8441" stroke="#006B99" stroke-width="3.23435" stroke-linecap="round" stroke-linejoin="round"/>
<path d="M158.84 85.3113L162.731 81.2401L164.8 79.0796L166.801 76.9876C166.929 76.852 166.996 76.6714 166.99 76.4861C166.983 76.3003 166.902 76.1254 166.764 75.9989C166.627 75.8729 166.445 75.8058 166.257 75.8125C166.07 75.8191 165.893 75.8996 165.765 76.0356L162.764 79.2238L157.481 84.8305" stroke="#006B99" stroke-width="3.23435" stroke-linecap="round" stroke-linejoin="round"/>
<path d="M153.612 88.7505L149.079 93.4942C149.012 93.5665 148.961 93.6521 148.929 93.7455C148.897 93.8389 148.886 93.9379 148.896 94.0358C148.906 94.1337 148.937 94.2286 148.986 94.3138C149.036 94.3995 149.103 94.4732 149.184 94.5311C149.305 94.6167 149.45 94.6627 149.6 94.6623C149.697 94.6623 149.793 94.6427 149.882 94.6041C149.971 94.5659 150.051 94.5096 150.117 94.4391L154.348 90.0106" stroke="#006B99" stroke-width="3.23435" stroke-linecap="round" stroke-linejoin="round"/>
<path d="M158.459 86.941C158.459 86.941 159.205 86.0209 158.611 85.3425C158.522 85.2453 158.419 85.1619 158.306 85.0937C158.057 84.9384 157.772 84.8498 157.478 84.8364C157.02 84.8631 156.577 85.0032 156.188 85.2435C155.799 85.4841 155.478 85.8173 155.253 86.2125" stroke="#006B99" stroke-width="3.23435" stroke-linecap="round" stroke-linejoin="round"/>
</g>
<defs>
<clipPath id="clip0_2_1234">
<rect width="362.396" height="238" fill="white" transform="translate(0.104156)"/>
</clipPath>
</defs>
</svg>
