<svg width="35" height="43" viewBox="0 0 35 43" fill="none" xmlns="http://www.w3.org/2000/svg">
<path fill-rule="evenodd" clip-rule="evenodd" d="M13.4579 1.16354C12.9985 1.33854 12.7689 1.58851 12.8199 1.8635C12.8965 2.28849 3.53051 14.6881 1.13166 22.2128C0.391552 24.5628 1.59103 24.8878 7.05239 23.8628C10.37 23.2378 10.2423 22.5879 8.0476 28.6377C6.41437 33.0875 5.21489 36.8124 4.65353 39.0873C3.88791 42.0872 5.49562 43.6621 9.47676 39.5873C11.1866 37.8373 15.0656 33.9125 24.1507 23.7628C31.8578 15.1631 31.8322 15.3881 25.7584 15.1631L22.0071 15.0131C23.768 13.1882 30.352 6.2384 32.3681 4.6134C34.3842 2.96347 35.0223 2.28851 32.3172 1.91352C29.1782 1.46353 18.5619 1.28854 15.4484 1.01355C14.7339 0.93856 13.8407 1.01355 13.4579 1.16354ZM28.5912 3.68845L27.2641 4.7634C24.023 7.3633 17.6176 14.8381 17.6176 15.988C17.6176 17.238 19.7614 17.113 25.2992 17.113C17.1327 26.3877 10.7527 33.6125 10.5996 33.6125C10.5485 33.6125 11.1356 31.9625 11.9267 29.9126C14.887 22.1379 15.0401 20.6879 12.9475 20.9379C9.32364 21.3629 5.77635 21.8379 5.29145 21.9878C4.8577 22.1128 5.13833 21.4379 6.77156 18.438C9.68093 12.9882 10.8548 11.4132 15.9589 3.08847C25.6819 3.51345 25.5798 3.51346 28.5912 3.68845Z" fill="#006B99"/>
</svg>
