<svg width="363" height="238" viewBox="0 0 363 238" fill="none" xmlns="http://www.w3.org/2000/svg">
<g clip-path="url(#clip0_2_1495)">
<path d="M361.396 0H-1V238H361.396V0Z" fill="#F7CEDC"/>
<path d="M258.013 117.427H255.214V149.32H258.013V117.427Z" fill="#FFCEB6"/>
<path d="M179.741 152.531L178.848 151.636C174.381 151.293 167.592 149.532 163.293 144.318C163.041 144.014 162.811 143.694 162.603 143.36C162.218 142.751 161.947 142.079 161.803 141.376C161.072 137.615 165.032 134.877 166.897 134.429C169.243 133.872 173.28 134.596 174.907 134.935C175.353 135.03 175.62 135.091 175.62 135.091C175.911 135.113 176.203 135.113 176.494 135.091C176.694 135.08 176.909 135.066 177.139 135.048C177.213 135.048 177.287 135.041 177.365 135.033C177.41 135.033 177.453 135.033 177.499 135.026C178.384 134.965 179.273 134.976 180.156 135.059C180.409 135.084 180.672 135.121 180.943 135.165C181.09 135.19 181.239 135.219 181.391 135.25C181.514 135.276 181.636 135.305 181.762 135.336C181.854 135.358 181.947 135.383 182.039 135.409C182.229 135.46 182.418 135.514 182.607 135.576C182.615 135.58 182.624 135.582 182.633 135.584C182.721 135.612 182.808 135.642 182.895 135.675V135.671C184.255 136.165 185.515 136.892 186.617 137.816C187.644 138.669 188.775 139.557 189.95 140.442C191.523 141.622 193.176 142.797 194.792 143.867C194.792 143.867 195.378 143.977 196.253 144.086L196.264 143.995V133.4H217.7C221.196 140.695 226.672 153.931 230.554 164.548C234.592 175.587 247.567 194.868 250.2 201.313C253.333 208.973 253.333 213.241 253.333 213.241H207.228C207.249 211.558 207.067 209.877 206.687 208.235L208.367 200.854C207.062 200.887 205.007 200.854 205.007 200.854V200.861C204.771 200.811 203.595 200.523 198.803 199.296C191.492 197.424 175.638 177.942 175.638 177.942C174.037 177.206 171.23 173.77 169.569 171.611C168.741 170.534 168.236 169.252 168.112 167.908H168.086C168.086 167.908 159.756 166.963 155.281 165.563C155.281 165.563 148.151 163.728 146.164 162.887C146.164 162.887 133.708 158.347 130.56 156.56C127.412 154.772 128.899 147.279 135.201 149.07C138.913 150.122 142.183 151.189 142.335 151.24C143.754 152.242 145.459 152.78 147.207 152.777H156.426C156.426 152.777 167.169 155.074 169.19 155.514L169.452 155.529C169.665 154.571 170.008 153.645 170.471 152.777H179.554L179.741 152.531Z" fill="#FFCEB6"/>
<path d="M250.78 127.625C250.806 127.589 250.831 127.553 250.858 127.519C250.764 128.431 250.413 129.3 249.846 130.028C249.462 130.567 248.911 130.969 248.275 131.174C247.638 131.378 246.951 131.374 246.318 131.161L244.133 133.884L241.686 130.833L243.871 128.111C243.688 127.357 243.674 126.574 243.831 125.815C243.988 125.055 244.311 124.339 244.779 123.715C245.27 123.066 245.988 122.619 246.796 122.459C246.763 122.488 246.734 122.52 246.708 122.554C246.161 123.291 245.865 124.178 245.865 125.09C245.865 126.002 246.161 126.889 246.708 127.626C246.937 127.948 247.241 128.212 247.595 128.394C247.95 128.577 248.344 128.671 248.744 128.671C249.145 128.671 249.539 128.576 249.893 128.394C250.248 128.211 250.552 127.947 250.78 127.625Z" fill="#CCEFF6"/>
<path d="M248.822 138.642C249.27 139.243 249.512 139.968 249.512 140.712C249.512 141.456 249.27 142.181 248.822 142.781C248.636 143.045 248.387 143.261 248.098 143.41C247.808 143.558 247.486 143.636 247.159 143.636C246.832 143.636 246.51 143.558 246.221 143.41C245.931 143.261 245.683 143.045 245.496 142.781C245.051 142.197 244.81 141.487 244.811 140.758L244.782 140.797L241.678 136.935L239.231 133.884L237.047 131.161C236.412 131.375 235.724 131.38 235.087 131.175C234.449 130.971 233.897 130.568 233.513 130.029C232.947 129.3 232.599 128.432 232.505 127.52C232.53 127.553 232.553 127.589 232.582 127.626C232.81 127.949 233.114 128.213 233.469 128.396C233.823 128.578 234.218 128.674 234.618 128.674C235.018 128.674 235.412 128.578 235.767 128.396C236.121 128.213 236.426 127.949 236.653 127.626C237.202 126.89 237.498 126.002 237.498 125.09C237.498 124.178 237.202 123.29 236.653 122.554C236.628 122.521 236.601 122.489 236.572 122.459C237.377 122.62 238.093 123.067 238.582 123.715C239.05 124.339 239.375 125.055 239.532 125.814C239.69 126.573 239.677 127.357 239.494 128.111L241.679 130.833L244.126 133.884L247.226 137.746L247.196 137.787C247.515 137.8 247.827 137.884 248.109 138.032C248.39 138.18 248.634 138.389 248.822 138.642Z" fill="#CCEFF6"/>
<path d="M239.228 133.883L241.678 136.934L240.562 138.326L239.228 133.883Z" fill="#006B99"/>
<path d="M239.228 133.883L240.562 138.326L238.575 140.797L238.542 140.758C238.543 141.488 238.303 142.198 237.856 142.782C237.67 143.046 237.421 143.261 237.131 143.41C236.842 143.559 236.52 143.636 236.193 143.636C235.866 143.636 235.544 143.559 235.254 143.41C234.965 143.261 234.716 143.046 234.53 142.782C234.084 142.181 233.844 141.456 233.844 140.712C233.844 139.968 234.084 139.244 234.53 138.642C234.718 138.389 234.962 138.18 235.244 138.031C235.526 137.883 235.838 137.798 236.158 137.784L236.124 137.744L239.228 133.883Z" fill="#CCEFF6"/>
<path d="M238.787 52.2563H236.116V82.6833H238.787V52.2563Z" fill="#FFCEB6"/>
<path d="M226.347 66.9868C226.521 67.1781 226.631 67.4165 226.664 67.6704C226.698 67.9243 226.652 68.1824 226.533 68.4103L226.352 68.7384L224.691 71.749C224.863 72.1234 224.965 72.5257 224.992 72.9357C225.088 74.3852 224.276 75.616 223.182 75.6819C222.088 75.7483 221.121 74.6343 221.024 73.1848C220.927 71.7353 221.74 70.5053 222.834 70.4385C223.037 70.4248 223.24 70.4519 223.431 70.5182L224.917 67.832L225.279 67.1729C225.32 67.0743 225.386 66.9875 225.47 66.9204C225.554 66.8537 225.654 66.8088 225.761 66.7899C225.867 66.7714 225.977 66.7796 226.08 66.814C226.182 66.8485 226.274 66.9078 226.347 66.9868Z" fill="#CCEFF6"/>
<path d="M217.702 133.4H196.266V94.5161C196.266 94.5161 199.421 95.4663 203.454 102.26C207.488 109.053 213.835 125.478 217.295 132.555C217.427 132.825 217.566 133.105 217.702 133.4Z" fill="#FFCEB6"/>
<path d="M205.052 200.868L205.007 200.854C205.007 200.854 207.062 200.887 208.367 200.854L206.687 208.235C206.034 204.787 205.055 201.03 205.011 200.858C205.024 200.863 205.038 200.866 205.052 200.868Z" fill="#006B99"/>
<path d="M196.266 133.4V143.988L196.254 144.079C195.381 143.97 194.793 143.86 194.793 143.86C193.177 142.789 191.524 141.614 189.952 140.434L190.004 140.369C190.264 139.767 190.397 139.121 190.397 138.468V133.404L196.266 133.4Z" fill="#CCEFF6"/>
<path d="M190.397 72.2332V66.9983C190.397 65.7008 189.872 64.4567 188.938 63.5391C188.004 62.622 186.737 62.1063 185.415 62.1063H155.869C154.548 62.1063 153.281 62.622 152.346 63.5391C151.413 64.4567 150.887 65.7008 150.887 66.9983V77.6649C150.887 78.3074 151.017 78.9435 151.267 79.537C151.517 80.1306 151.884 80.6696 152.346 81.1241C152.809 81.5782 153.358 81.9385 153.962 82.1843C154.567 82.4301 155.215 82.5565 155.869 82.5565H185.413C186.067 82.5565 186.715 82.4301 187.319 82.1843C187.924 81.9385 188.473 81.5782 188.935 81.1241C189.398 80.6696 189.765 80.1306 190.015 79.537C190.265 78.9435 190.394 78.3074 190.394 77.6649L190.397 72.2332ZM144.159 103.544V58.9697C144.159 56.6397 145.101 54.4054 146.779 52.758C148.456 51.1105 150.732 50.1848 153.104 50.1841H154.175C154.175 51.9394 154.885 53.6228 156.149 54.8644C157.413 56.1055 159.127 56.8029 160.915 56.8029H177.681C179.468 56.8017 181.182 56.1044 182.446 54.8633C183.711 53.6225 184.422 51.9394 184.424 50.1841H187.316C188.491 50.1837 189.655 50.411 190.741 50.8521C191.826 51.2936 192.813 51.9405 193.644 52.7565C194.475 53.5724 195.134 54.5407 195.584 55.6069C196.034 56.6731 196.266 57.8157 196.266 58.9697V133.4H190.397V127.803C190.397 126.506 189.872 125.262 188.938 124.344C188.004 123.427 186.737 122.911 185.415 122.911H155.869C154.548 122.911 153.281 123.427 152.346 124.344C151.413 125.262 150.887 126.506 150.887 127.803V138.467C150.887 139.765 151.413 141.009 152.346 141.926C153.281 142.844 154.548 143.359 155.869 143.359H162.606C162.814 143.693 163.044 144.013 163.295 144.317C167.592 149.531 174.381 151.289 178.851 151.635L179.744 152.53L179.559 152.778H153.104C150.731 152.777 148.455 151.85 146.778 150.201C145.1 148.553 144.158 146.318 144.159 143.987V103.544ZM150.895 103.544V108.066C150.895 109.363 151.419 110.608 152.354 111.525C153.288 112.443 154.555 112.958 155.876 112.958H185.42C186.741 112.958 188.008 112.443 188.942 111.525C189.876 110.608 190.401 109.363 190.401 108.066V97.4019C190.401 96.1047 189.876 94.8602 188.942 93.9431C188.008 93.0256 186.741 92.5103 185.42 92.5103H155.869C154.548 92.5103 153.281 93.0256 152.346 93.9431C151.413 94.8602 150.887 96.1047 150.887 97.4019L150.895 103.544Z" fill="#CCEFF6"/>
<path d="M190.397 133.4V138.463C190.397 139.116 190.264 139.763 190.004 140.364L189.952 140.429C188.777 139.545 187.646 138.656 186.619 137.804C185.517 136.879 184.257 136.153 182.897 135.659C183.235 135.083 183.434 134.438 183.477 133.774C183.521 133.11 183.409 132.446 183.15 131.832C182.89 131.218 182.49 130.67 181.981 130.232C181.472 129.794 180.867 129.476 180.212 129.304C179.559 129.132 178.873 129.11 178.209 129.24C177.545 129.37 176.92 129.648 176.383 130.053C175.845 130.458 175.41 130.979 175.111 131.575C174.811 132.171 174.655 132.828 174.655 133.493C174.656 133.983 174.742 134.469 174.91 134.931C173.283 134.592 169.246 133.868 166.899 134.425C165.034 134.872 161.075 137.61 161.805 141.372C161.949 142.075 162.22 142.747 162.606 143.356H155.869C154.548 143.356 153.281 142.841 152.346 141.923C151.413 141.006 150.887 139.761 150.887 138.464V127.804C150.887 126.506 151.413 125.262 152.346 124.344C153.281 123.427 154.548 122.912 155.869 122.912H185.413C186.734 122.912 188.001 123.427 188.935 124.344C189.869 125.262 190.394 126.506 190.394 127.804V133.4H190.397Z" fill="#CCEFF6"/>
<path d="M150.887 103.544V97.4022C150.887 96.1047 151.413 94.8606 152.346 93.9431C153.281 93.0259 154.548 92.5103 155.869 92.5103H185.413C186.734 92.5103 188.001 93.0259 188.935 93.9431C189.869 94.8606 190.394 96.1047 190.394 97.4022V108.066C190.394 109.364 189.869 110.608 188.935 111.525C188.001 112.443 186.734 112.958 185.413 112.958H155.869C154.548 112.958 153.281 112.443 152.346 111.525C151.413 110.608 150.887 109.364 150.887 108.066V103.544ZM165.258 103.639C165.258 102.782 164.999 101.944 164.513 101.231C164.028 100.518 163.339 99.9631 162.532 99.6354C161.726 99.3073 160.839 99.2217 159.982 99.3893C159.126 99.5565 158.34 99.9691 157.723 100.575C157.106 101.181 156.685 101.954 156.515 102.794C156.344 103.635 156.432 104.507 156.765 105.298C157.099 106.091 157.665 106.768 158.391 107.244C159.116 107.72 159.969 107.975 160.842 107.975C161.422 107.975 161.997 107.863 162.533 107.646C163.069 107.428 163.556 107.109 163.966 106.706C164.376 106.303 164.702 105.825 164.924 105.299C165.146 104.772 165.261 104.209 165.261 103.639H165.258Z" fill="#CCEFF6"/>
<path d="M190.397 72.2332V77.6649C190.397 78.3073 190.268 78.9435 190.017 79.5366C189.767 80.1302 189.4 80.6696 188.938 81.1237C188.475 81.5782 187.926 81.9385 187.322 82.1843C186.717 82.4301 186.07 82.5565 185.415 82.5565H155.869C155.215 82.5565 154.567 82.4301 153.962 82.1843C153.358 81.9385 152.809 81.5782 152.346 81.1237C151.884 80.6696 151.517 80.1302 151.267 79.5366C151.017 78.9435 150.887 78.3073 150.887 77.6649V67.0009C150.887 65.7034 151.413 64.4592 152.346 63.5417C153.281 62.6242 154.548 62.1089 155.869 62.1089H185.413C186.734 62.1089 188.001 62.6242 188.935 63.5417C189.869 64.4592 190.394 65.7034 190.394 67.0009L190.397 72.2332ZM183.486 72.3277C183.486 71.4699 183.227 70.6317 182.742 69.9184C182.257 69.2051 181.567 68.6494 180.76 68.3214C179.953 67.9929 179.065 67.9073 178.209 68.0745C177.352 68.2417 176.565 68.6546 175.947 69.2611C175.33 69.8676 174.909 70.6406 174.739 71.4817C174.569 72.3229 174.656 73.1948 174.991 73.987C175.325 74.7796 175.89 75.4569 176.617 75.9333C177.343 76.4096 178.197 76.664 179.07 76.664C180.241 76.6632 181.363 76.2061 182.191 75.3928C183.019 74.5798 183.484 73.4773 183.484 72.3277H183.486Z" fill="#CCEFF6"/>
<path d="M154.175 50.1841H184.423C184.421 51.9394 183.711 53.6225 182.446 54.8633C181.182 56.1044 179.468 56.8017 177.681 56.8029H160.915C159.127 56.8029 157.413 56.1055 156.149 54.8644C154.885 53.6228 154.175 51.9394 154.175 50.1841Z" fill="#006B99"/>
<path d="M183.484 133.494C183.483 134.254 183.28 135.001 182.895 135.66L182.628 135.574C182.619 135.573 182.61 135.57 182.602 135.567C182.413 135.502 182.224 135.447 182.034 135.399C181.942 135.374 181.849 135.349 181.756 135.326C181.631 135.294 181.508 135.268 181.386 135.241C181.234 135.212 181.085 135.183 180.938 135.155C180.67 135.108 180.413 135.075 180.151 135.049C179.268 134.965 178.379 134.954 177.494 135.017C177.449 135.017 177.406 135.024 177.36 135.024C177.282 135.031 177.208 135.035 177.134 135.038C176.901 135.052 176.685 135.067 176.488 135.082C176.198 135.104 175.906 135.104 175.615 135.082C175.615 135.082 175.353 135.02 174.903 134.926C174.734 134.464 174.648 133.978 174.647 133.487C174.639 132.913 174.747 132.343 174.965 131.809C175.183 131.276 175.507 130.791 175.918 130.382C176.329 129.973 176.819 129.647 177.359 129.426C177.898 129.204 178.477 129.09 179.063 129.09C179.648 129.09 180.227 129.204 180.767 129.426C181.307 129.647 181.796 129.973 182.207 130.382C182.618 130.791 182.942 131.276 183.16 131.809C183.378 132.343 183.486 132.913 183.478 133.487L183.484 133.494Z" fill="white"/>
<path d="M179.07 76.6645C181.509 76.6645 183.486 74.7227 183.486 72.3279C183.486 69.933 181.509 67.9912 179.07 67.9912C176.631 67.9912 174.654 69.933 174.654 72.3279C174.654 74.7227 176.631 76.6645 179.07 76.6645Z" fill="white"/>
<path d="M156.425 152.776H170.473C170.009 153.645 169.667 154.571 169.453 155.529L169.191 155.514C167.169 155.074 156.425 152.776 156.425 152.776Z" fill="#006B99"/>
<path d="M160.845 99.3032C161.719 99.3025 162.572 99.5564 163.299 100.032C164.026 100.508 164.592 101.186 164.927 101.978C165.262 102.771 165.35 103.642 165.18 104.484C165.01 105.326 164.589 106.098 163.972 106.705C163.354 107.312 162.567 107.725 161.711 107.893C160.854 108.06 159.966 107.975 159.159 107.646C158.352 107.318 157.662 106.762 157.176 106.049C156.691 105.336 156.432 104.497 156.432 103.639C156.433 102.49 156.898 101.387 157.725 100.574C158.552 99.7614 159.674 99.3043 160.845 99.3032Z" fill="white"/>
<path d="M150.508 50.1841H153.104C150.732 50.1848 148.456 51.1105 146.779 52.758C145.101 54.4054 144.159 56.6397 144.159 58.9697V103.544H141.563V58.9697C141.563 56.6397 142.506 54.4054 144.183 52.758C145.861 51.1105 148.136 50.1848 150.508 50.1841Z" fill="#006B99"/>
<path d="M153.104 152.776H150.508C148.135 152.776 145.858 151.85 144.18 150.202C142.502 148.553 141.559 146.318 141.559 143.987V103.544H144.159V143.987C144.159 146.318 145.101 148.552 146.778 150.2C148.456 151.848 150.731 152.775 153.104 152.776Z" fill="#006B99"/>
<path d="M138.837 128.321V139.443C138.837 139.443 134.792 138.762 129.291 137.863C123.79 136.964 123.785 130.482 126.725 128.321C129.665 126.159 138.459 128.321 138.459 128.321H138.837Z" fill="#FFCEB6"/>
<path d="M121.583 99.8925V105.74H119.784C119.121 105.74 118.787 106.73 119.26 107.313L120.532 108.882L117.18 113.018L115.907 111.448C115.436 110.866 114.635 111.277 114.635 112.097V114.317H109.894V112.097C109.894 111.278 109.092 110.866 108.621 111.448L107.35 113.018L103.998 108.882L105.27 107.313C105.741 106.73 105.407 105.74 104.745 105.74H102.945V99.8925H104.745C105.409 99.8925 105.743 98.899 105.27 98.3195L103.998 96.7473L107.35 92.6116L108.621 94.1805C109.092 94.7596 109.894 94.3521 109.894 93.5291V91.3115H114.635V93.5325C114.635 94.3547 115.436 94.7633 115.907 94.1838L117.179 92.615L120.53 96.7473L119.259 98.3162C118.787 98.8953 119.121 99.8892 119.783 99.8892L121.583 99.8925ZM115.076 102.817C115.076 100.898 113.816 99.3427 112.266 99.3427C110.717 99.3427 109.452 100.898 109.452 102.817C109.452 104.736 110.712 106.286 112.266 106.286C113.82 106.286 115.076 104.728 115.076 102.817Z" fill="#CCEFF6"/>
<path d="M97.7666 86.2217H94.7263V120.868H97.7666V86.2217Z" fill="#FFCEB6"/>
<path d="M97.7666 86.2217L127.526 88.7704V118.319L97.7666 120.868" stroke="#006B99" stroke-width="3.704" stroke-linecap="round" stroke-linejoin="round"/>
<path d="M97.7666 86.2217H94.7263V120.868H97.7666V86.2217Z" stroke="#006B99" stroke-width="3.704" stroke-linecap="round" stroke-linejoin="round"/>
<path d="M236.116 52.2563L209.984 57.7719V85.5445L236.116 82.6825" stroke="#006B99" stroke-width="3.704" stroke-linecap="round" stroke-linejoin="round"/>
<path d="M238.787 52.2563H236.116V82.6833H238.787V52.2563Z" stroke="#006B99" stroke-width="3.704" stroke-linecap="round" stroke-linejoin="round"/>
<path d="M255.214 117.427L227.815 119.772V146.972L255.214 149.321" stroke="#006B99" stroke-width="3.704" stroke-linecap="round" stroke-linejoin="round"/>
<path d="M258.013 117.427H255.214V149.32H258.013V117.427Z" stroke="#006B99" stroke-width="3.704" stroke-linecap="round" stroke-linejoin="round"/>
<path d="M184.424 50.1841H187.316C188.491 50.1837 189.655 50.411 190.741 50.8521C191.826 51.2936 192.813 51.9405 193.644 52.7565C194.475 53.5724 195.134 54.5407 195.584 55.6069C196.034 56.6731 196.266 57.8157 196.266 58.9697V143.987" stroke="#006B99" stroke-width="3.704" stroke-linecap="round" stroke-linejoin="round"/>
<path d="M153.701 50.1841H154.175" stroke="#006B99" stroke-width="3.704" stroke-linecap="round" stroke-linejoin="round"/>
<path d="M150.508 152.776C148.135 152.776 145.858 151.85 144.18 150.202C142.502 148.554 141.559 146.318 141.559 143.987V58.9697C141.559 57.8157 141.791 56.6731 142.24 55.6069C142.69 54.5407 143.349 53.5724 144.18 52.7565C145.011 51.9405 145.998 51.2936 147.084 50.8521C148.169 50.411 149.333 50.1837 150.508 50.1841" stroke="#006B99" stroke-width="3.704" stroke-linecap="round" stroke-linejoin="round"/>
<path d="M179.556 152.776H170.473H156.426H153.701" stroke="#006B99" stroke-width="3.704" stroke-linecap="round" stroke-linejoin="round"/>
<path d="M153.104 152.776C150.731 152.775 148.456 151.848 146.778 150.2C145.101 148.552 144.159 146.318 144.159 143.987V58.9697C144.159 56.6397 145.101 54.4054 146.779 52.758C148.456 51.1105 150.732 50.1848 153.104 50.1841" stroke="#006B99" stroke-width="3.704" stroke-linecap="round" stroke-linejoin="round"/>
<path d="M142.337 151.243C141.253 150.482 140.37 149.477 139.762 148.313C139.153 147.149 138.836 145.858 138.837 144.55V58.4084C138.837 57.3278 139.054 56.2579 139.475 55.2596C139.896 54.2616 140.513 53.3545 141.291 52.5908C142.07 51.8267 142.994 51.2213 144.011 50.8084C145.027 50.3954 146.117 50.1833 147.217 50.1841H153.705" stroke="#006B99" stroke-width="3.704" stroke-linecap="round" stroke-linejoin="round"/>
<path d="M153.701 152.776H147.217C145.469 152.779 143.764 152.242 142.345 151.24" stroke="#006B99" stroke-width="3.704" stroke-linecap="round" stroke-linejoin="round"/>
<path d="M184.423 50.1841C184.421 51.9394 183.711 53.6225 182.446 54.8633C181.182 56.1044 179.468 56.8017 177.681 56.8029H160.915C159.127 56.8029 157.413 56.1055 156.149 54.8644C154.885 53.6228 154.175 51.9394 154.175 50.1841H184.423Z" stroke="#006B99" stroke-width="3.704" stroke-linecap="round" stroke-linejoin="round"/>
<path d="M185.414 82.555H155.869C154.548 82.555 153.281 82.0394 152.346 81.1222C151.413 80.2047 150.887 78.9605 150.887 77.663V67.0009C150.887 65.7034 151.413 64.4592 152.346 63.5417C153.281 62.6242 154.548 62.1089 155.869 62.1089H185.413C186.734 62.1089 188.001 62.6242 188.935 63.5417C189.869 64.4592 190.394 65.7034 190.394 67.0009V77.6649C190.393 78.9617 189.869 80.2054 188.935 81.1226C188.001 82.0393 186.734 82.5546 185.414 82.555Z" stroke="#006B99" stroke-width="3.704" stroke-linecap="round" stroke-linejoin="round"/>
<path d="M185.414 112.956H155.869C154.548 112.956 153.281 112.441 152.346 111.524C151.413 110.606 150.887 109.362 150.887 108.065V97.4022C150.887 96.1047 151.413 94.8606 152.346 93.9431C153.281 93.0259 154.548 92.5103 155.869 92.5103H185.413C186.734 92.5103 188.001 93.0259 188.935 93.9431C189.869 94.8606 190.394 96.1047 190.394 97.4022V108.066C190.393 109.363 189.869 110.607 188.935 111.524C188.001 112.441 186.734 112.956 185.414 112.956Z" stroke="#006B99" stroke-width="3.704" stroke-linecap="round" stroke-linejoin="round"/>
<path d="M162.609 143.358H155.869C154.548 143.358 153.281 142.842 152.346 141.925C151.413 141.007 150.887 139.763 150.887 138.466V127.804C150.887 126.506 151.413 125.262 152.346 124.344C153.281 123.427 154.548 122.912 155.869 122.912H185.413C186.734 122.912 188.001 123.427 188.935 124.344C189.869 125.262 190.394 126.506 190.394 127.804V138.468C190.395 139.121 190.261 139.767 190.001 140.369" stroke="#006B99" stroke-width="3.704" stroke-linecap="round" stroke-linejoin="round"/>
<path d="M130.166 103.544H138.837H141.559H144.154H150.89H154.175" stroke="#006B99" stroke-width="3.704" stroke-linecap="round" stroke-linejoin="round"/>
<path d="M174.91 134.933C173.283 134.593 169.246 133.869 166.899 134.426C165.034 134.874 161.075 137.612 161.805 141.373C161.949 142.076 162.22 142.748 162.606 143.357C162.814 143.691 163.044 144.011 163.295 144.315C167.592 149.529 174.381 151.287 178.851 151.633L179.744 152.528C181.916 154.717 187.422 160.252 188.886 161.797C188.886 161.797 193.157 178.239 197.881 182.877C204.272 189.158 207.931 190.949 212.038 191.549" stroke="#006B99" stroke-width="3.704" stroke-linecap="round" stroke-linejoin="round"/>
<path d="M177.139 135.042C176.906 135.056 176.691 135.07 176.494 135.086" stroke="#006B99" stroke-width="3.704" stroke-linecap="round" stroke-linejoin="round"/>
<path d="M180.939 135.158C180.672 135.111 180.415 135.079 180.153 135.053C179.269 134.968 178.38 134.957 177.495 135.02" stroke="#006B99" stroke-width="3.704" stroke-linecap="round" stroke-linejoin="round"/>
<path d="M181.758 135.326C181.632 135.293 181.51 135.267 181.388 135.24" stroke="#006B99" stroke-width="3.704" stroke-linecap="round" stroke-linejoin="round"/>
<path d="M182.603 135.566C182.414 135.501 182.226 135.446 182.036 135.398" stroke="#006B99" stroke-width="3.704" stroke-linecap="round" stroke-linejoin="round"/>
<path d="M202.145 147.948C199.559 146.837 197.095 145.466 194.793 143.86C193.177 142.789 191.524 141.614 189.952 140.434C188.777 139.549 187.646 138.661 186.619 137.808C185.517 136.884 184.257 136.157 182.897 135.663L182.63 135.577" stroke="#006B99" stroke-width="3.704" stroke-linecap="round" stroke-linejoin="round"/>
<path d="M194.793 143.863C194.793 143.863 195.38 143.973 196.254 144.082C198.063 144.311 201.118 144.551 202.816 143.863" stroke="#006B99" stroke-width="3.704" stroke-linecap="round" stroke-linejoin="round"/>
<path d="M177.367 135.023C176.41 136.053 171.79 139.502 172.385 143.856" stroke="#006B99" stroke-width="3.704" stroke-linecap="round" stroke-linejoin="round"/>
<path d="M161.805 141.374C163.548 142.655 167.829 143.434 169.505 142.51C169.505 142.51 170.492 137.576 172.708 135.935" stroke="#006B99" stroke-width="3.704" stroke-linecap="round" stroke-linejoin="round"/>
<path d="M253.334 213.244C253.334 213.244 253.334 208.973 250.201 201.315C247.569 194.871 234.593 175.588 230.556 164.55C226.674 153.933 221.195 140.692 217.702 133.402C217.564 133.107 217.427 132.827 217.295 132.554C213.835 125.476 207.492 109.056 203.454 102.259C199.417 95.4618 196.266 94.5161 196.266 94.5161" stroke="#006B99" stroke-width="3.704" stroke-linecap="round" stroke-linejoin="round"/>
<path d="M205.052 200.868L205.007 200.854V200.861C205.052 201.032 206.031 204.79 206.684 208.237C207.064 209.879 207.245 211.56 207.224 213.244" stroke="#006B99" stroke-width="3.704" stroke-linecap="round" stroke-linejoin="round"/>
<path d="M168.237 165.562C168.118 166.151 168.068 166.751 168.089 167.35C168.089 167.537 168.1 167.722 168.115 167.907C168.239 169.251 168.743 170.534 169.572 171.61C171.232 173.769 174.04 177.206 175.641 177.941C175.641 177.941 191.494 197.423 198.806 199.295C203.599 200.523 204.774 200.81 205.01 200.861C205.024 200.864 205.037 200.867 205.051 200.868C205.056 200.87 205.061 200.87 205.066 200.868" stroke="#006B99" stroke-width="3.704" stroke-linecap="round" stroke-linejoin="round"/>
<path d="M168.089 167.907C168.089 167.907 159.759 166.963 155.283 165.563C155.283 165.563 148.154 163.728 146.167 162.887C146.167 162.887 133.71 158.347 130.562 156.559C127.415 154.771 128.902 147.278 135.204 149.069C138.915 150.122 142.185 151.188 142.338 151.24" stroke="#006B99" stroke-width="3.704" stroke-linecap="round" stroke-linejoin="round"/>
<path d="M145.188 155.15C145.188 155.15 144.751 157.079 144.644 158.045" stroke="#006B99" stroke-width="3.704" stroke-linecap="round" stroke-linejoin="round"/>
<path d="M156.682 156.971C156.682 156.971 156.244 159.992 156.136 160.958" stroke="#006B99" stroke-width="3.704" stroke-linecap="round" stroke-linejoin="round"/>
<path d="M205.007 200.854C205.007 200.854 207.062 200.887 208.367 200.854L206.687 208.235" stroke="#006B99" stroke-width="3.704" stroke-linecap="round" stroke-linejoin="round"/>
<path d="M138.459 128.321C138.459 128.321 129.658 126.158 126.725 128.321C123.792 130.483 123.789 136.964 129.291 137.863C134.793 138.763 138.837 139.443 138.837 139.443" stroke="#006B99" stroke-width="3.704" stroke-linecap="round" stroke-linejoin="round"/>
<path d="M170.473 152.776C170.009 153.645 169.667 154.571 169.453 155.529C169.314 156.121 169.227 156.724 169.191 157.331" stroke="#006B99" stroke-width="3.704" stroke-linecap="round" stroke-linejoin="round"/>
<path d="M156.425 152.776C156.425 152.776 167.169 155.074 169.19 155.514" stroke="#006B99" stroke-width="3.704" stroke-linecap="round" stroke-linejoin="round"/>
<path d="M165.261 103.639C165.261 104.496 165.002 105.334 164.517 106.047C164.031 106.759 163.342 107.315 162.535 107.643C161.729 107.971 160.842 108.057 159.985 107.889C159.129 107.722 158.343 107.31 157.726 106.703C157.108 106.097 156.688 105.325 156.517 104.484C156.347 103.644 156.434 102.772 156.768 101.98C157.102 101.188 157.667 100.511 158.393 100.035C159.119 99.5579 159.972 99.3036 160.845 99.3032C161.425 99.3032 161.999 99.4152 162.535 99.6332C163.07 99.8508 163.557 100.17 163.967 100.573C164.377 100.976 164.703 101.453 164.925 101.979C165.147 102.505 165.261 103.069 165.261 103.639Z" stroke="#006B99" stroke-width="3.704" stroke-linecap="round" stroke-linejoin="round"/>
<path d="M206.042 72.2334H196.266H190.396H185.744" stroke="#006B99" stroke-width="3.704" stroke-linecap="round" stroke-linejoin="round"/>
<path d="M179.07 76.6645C181.509 76.6645 183.486 74.7227 183.486 72.3279C183.486 69.933 181.509 67.9912 179.07 67.9912C176.631 67.9912 174.654 69.933 174.654 72.3279C174.654 74.7227 176.631 76.6645 179.07 76.6645Z" stroke="#006B99" stroke-width="3.704" stroke-linecap="round" stroke-linejoin="round"/>
<path d="M224.579 133.4H217.702H196.266H190.396H185.744" stroke="#006B99" stroke-width="3.704" stroke-linecap="round" stroke-linejoin="round"/>
<path d="M174.91 134.932C175.356 135.027 175.622 135.089 175.622 135.089C175.913 135.11 176.206 135.11 176.496 135.089C176.696 135.077 176.911 135.062 177.141 135.045C177.215 135.045 177.29 135.038 177.368 135.03C177.412 135.03 177.455 135.03 177.501 135.023C178.386 134.962 179.275 134.973 180.159 135.056C180.411 135.082 180.674 135.118 180.946 135.161C181.093 135.187 181.242 135.216 181.394 135.247C181.516 135.273 181.639 135.302 181.764 135.333C181.857 135.356 181.95 135.38 182.042 135.406C182.232 135.457 182.42 135.512 182.61 135.573C182.618 135.577 182.626 135.579 182.636 135.581C182.723 135.609 182.81 135.639 182.898 135.672V135.668C183.236 135.092 183.434 134.447 183.479 133.783C183.522 133.12 183.41 132.455 183.15 131.841C182.891 131.226 182.491 130.679 181.982 130.241C181.472 129.803 180.867 129.485 180.214 129.313C179.559 129.142 178.874 129.12 178.209 129.249C177.545 129.379 176.921 129.657 176.383 130.062C175.846 130.467 175.411 130.988 175.111 131.584C174.812 132.181 174.656 132.836 174.656 133.502C174.657 133.989 174.743 134.473 174.91 134.932Z" stroke="#006B99" stroke-width="3.704" stroke-linecap="round" stroke-linejoin="round"/>
<path d="M121.583 99.8925H119.784C119.121 99.8925 118.787 98.899 119.26 98.3195L120.53 96.7473L117.179 92.6116L115.907 94.1805C115.436 94.7596 114.635 94.3521 114.635 93.5291V91.3115H109.894V93.5325C109.894 94.3547 109.092 94.7633 108.621 94.1838L107.35 92.615L103.998 96.7473L105.27 98.3195C105.741 98.899 105.407 99.8925 104.745 99.8925H102.945V105.74H104.745C105.409 105.74 105.743 106.73 105.27 107.313L103.998 108.882L107.35 113.018L108.621 111.448C109.092 110.866 109.894 111.277 109.894 112.097V114.317H114.635V112.097C114.635 111.278 115.436 110.866 115.907 111.448L117.179 113.018L120.53 108.882L119.259 107.313C118.787 106.73 119.121 105.74 119.783 105.74H121.581V99.8925H121.583Z" stroke="#006B99" stroke-width="3.704" stroke-linecap="round" stroke-linejoin="round"/>
<path d="M115.076 102.817C115.076 104.731 113.816 106.286 112.266 106.286C110.717 106.286 109.452 104.731 109.452 102.817C109.452 100.902 110.712 99.3428 112.266 99.3428C113.82 99.3428 115.076 100.898 115.076 102.817Z" stroke="#006B99" stroke-width="3.704" stroke-linecap="round" stroke-linejoin="round"/>
<path d="M224.913 67.8313C224.199 67.514 223.416 67.3724 222.633 67.4195C220.92 67.5285 219.433 68.7344 218.414 70.4783C217.349 72.3774 216.862 74.5369 217.009 76.7004C217.016 76.8127 217.024 76.9295 217.035 77.0437" stroke="#006B99" stroke-width="3.704" stroke-linecap="round" stroke-linejoin="round"/>
<path d="M229.358 75.5247C229.358 75.4113 229.351 75.299 229.343 75.1815C229.244 73.3142 228.611 71.5121 227.516 69.9825C227.179 69.524 226.788 69.1062 226.352 68.7373" stroke="#006B99" stroke-width="3.704" stroke-linecap="round" stroke-linejoin="round"/>
<path d="M229.358 75.5247L233.028 75.2916C233.021 75.1789 233.021 75.0658 233.013 74.9483C232.854 71.9818 231.851 69.1184 230.118 66.6835C228.128 63.9895 225.321 62.3762 222.318 62.5693C219.43 62.7554 216.942 64.7725 215.318 67.6997C213.799 70.5375 213.115 73.7353 213.346 76.9331C213.353 77.0491 213.364 77.1622 213.372 77.2764L217.042 77.0439" stroke="#006B99" stroke-width="3.704" stroke-linecap="round" stroke-linejoin="round"/>
<path d="M226.352 68.7381L226.533 68.4104C226.652 68.1824 226.698 67.9244 226.664 67.6704C226.631 67.4161 226.521 67.1781 226.347 66.9865C226.274 66.9071 226.182 66.8471 226.079 66.8122C225.977 66.7774 225.866 66.7688 225.759 66.7874C225.652 66.8059 225.551 66.8511 225.467 66.9186C225.382 66.9861 225.316 67.0736 225.276 67.1729L224.913 67.8321L223.428 70.5183C223.236 70.4519 223.033 70.4245 222.831 70.4382C221.737 70.5079 220.925 71.7387 221.021 73.1845C221.117 74.6306 222.085 75.7517 223.179 75.682C224.272 75.6127 225.085 74.3826 224.988 72.9357C224.962 72.5257 224.86 72.1235 224.688 71.7487L226.352 68.7381Z" stroke="#006B99" stroke-width="3.704" stroke-linecap="round" stroke-linejoin="round"/>
<path d="M222.314 62.5698L222.633 67.4199" stroke="#006B99" stroke-width="3.704" stroke-linecap="round" stroke-linejoin="round"/>
<path d="M215.34 67.7148L218.024 70.4526" stroke="#006B99" stroke-width="3.704" stroke-linecap="round" stroke-linejoin="round"/>
<path d="M229.981 66.7788L227.734 69.8339" stroke="#006B99" stroke-width="3.704" stroke-linecap="round" stroke-linejoin="round"/>
<path d="M244.133 133.884L246.318 131.161C246.951 131.374 247.639 131.378 248.276 131.174C248.912 130.97 249.464 130.568 249.848 130.028C250.415 129.3 250.766 128.431 250.859 127.52C250.833 127.553 250.808 127.589 250.781 127.625C250.553 127.948 250.249 128.213 249.894 128.395C249.539 128.578 249.145 128.673 248.744 128.673C248.344 128.673 247.949 128.578 247.594 128.395C247.239 128.213 246.935 127.948 246.707 127.625C246.159 126.889 245.865 126.001 245.865 125.089C245.865 124.178 246.159 123.29 246.707 122.554C246.733 122.52 246.762 122.488 246.794 122.458C245.986 122.618 245.268 123.066 244.777 123.715C244.309 124.339 243.986 125.055 243.829 125.814C243.672 126.573 243.686 127.356 243.869 128.11L241.684 130.833" stroke="#006B99" stroke-width="3.704" stroke-linecap="round" stroke-linejoin="round"/>
<path d="M239.228 133.883L236.124 137.745L236.158 137.786C235.838 137.8 235.526 137.884 235.244 138.033C234.962 138.181 234.718 138.39 234.529 138.644C234.084 139.245 233.844 139.97 233.844 140.713C233.844 141.457 234.084 142.182 234.529 142.783C234.716 143.047 234.964 143.262 235.254 143.411C235.544 143.56 235.866 143.638 236.193 143.638C236.52 143.638 236.842 143.56 237.131 143.411C237.421 143.262 237.67 143.047 237.856 142.783C238.303 142.2 238.543 141.489 238.542 140.759L238.575 140.799L240.562 138.327L241.678 136.936" stroke="#006B99" stroke-width="3.704" stroke-linecap="round" stroke-linejoin="round"/>
<path d="M241.678 130.833L239.494 128.11C239.676 127.356 239.689 126.573 239.531 125.813C239.374 125.054 239.05 124.338 238.581 123.715C238.092 123.066 237.376 122.619 236.571 122.458C236.6 122.489 236.627 122.521 236.653 122.554C237.201 123.289 237.497 124.178 237.497 125.089C237.497 126.001 237.201 126.889 236.653 127.625C236.425 127.948 236.121 128.213 235.766 128.395C235.412 128.578 235.017 128.673 234.617 128.673C234.217 128.673 233.822 128.578 233.468 128.395C233.114 128.213 232.809 127.948 232.582 127.625C232.552 127.589 232.529 127.553 232.504 127.52C232.598 128.431 232.947 129.299 233.513 130.028C233.896 130.568 234.449 130.971 235.086 131.175C235.724 131.379 236.411 131.374 237.046 131.161L239.23 133.884L241.677 136.935L244.78 140.797L244.81 140.757C244.809 141.487 245.05 142.197 245.495 142.781C245.682 143.045 245.93 143.26 246.22 143.409C246.51 143.558 246.832 143.636 247.158 143.636C247.485 143.636 247.807 143.558 248.097 143.409C248.387 143.26 248.635 143.045 248.821 142.781C249.27 142.181 249.511 141.455 249.511 140.711C249.511 139.967 249.27 139.242 248.821 138.642C248.634 138.388 248.391 138.179 248.11 138.03C247.828 137.882 247.517 137.798 247.198 137.784L247.227 137.743L244.128 133.881L241.678 130.833Z" stroke="#006B99" stroke-width="3.704" stroke-linecap="round" stroke-linejoin="round"/>
<path d="M239.228 133.883L240.562 138.326" stroke="#006B99" stroke-width="3.704" stroke-linecap="round" stroke-linejoin="round"/>
</g>
<defs>
<clipPath id="clip0_2_1495">
<rect width="362.396" height="238" fill="white" transform="translate(0.0416679)"/>
</clipPath>
</defs>
</svg>
