<svg width="363" height="238" viewBox="0 0 363 238" fill="none" xmlns="http://www.w3.org/2000/svg">
<g clip-path="url(#clip0_2_1396)">
<path d="M362.583 0H0.1875V238H362.583V0Z" fill="#FAE173"/>
<path d="M168.765 139.959C168.655 139.475 168.658 138.973 168.775 138.491C169.686 134.53 169.548 128.685 170.458 123.934C171.369 119.182 174.369 119.716 177.687 118.578C179.804 117.848 181.786 116.727 184.042 115.697C185.386 115.067 186.776 114.539 188.202 114.117C192.426 112.896 203.028 117.286 208.163 118.093C209.376 118.282 210.572 118.568 211.739 118.947L211.762 118.878C211.762 118.878 235.18 103.115 241.303 98.7975C247.425 94.4806 259.994 85.7153 259.994 85.7153L274.308 118.092C274.308 118.092 246.203 136.335 242.044 139.932C237.885 143.528 228.737 148.1 228.737 148.1L228.663 148.082C228.105 150.594 226.247 153.459 221.125 156.299L220.817 156.405C219.97 154.49 218.898 152.678 217.623 151.007C212.516 141.78 191.685 128.107 189.884 128.401C188.083 128.695 183.109 129.338 183.109 129.338C182.744 130.417 181.214 131.021 181.214 131.021H181.083C181.108 134.285 179.966 137.455 177.857 139.978C174.525 144.107 169.45 142.935 168.765 139.959Z" fill="#FFCEB6"/>
<path d="M226.705 58.7404C227.033 60.2125 227.159 61.7206 227.082 63.2253C227.066 63.4889 226.994 63.7458 226.87 63.9801C226.746 64.214 226.574 64.4201 226.363 64.5844C226.153 64.7486 225.91 64.8676 225.65 64.9336C225.39 64.9996 225.119 65.0111 224.854 64.9669L217.894 63.8389C217.468 63.7718 217.077 63.5642 216.787 63.2502C216.497 62.9358 216.324 62.5339 216.298 62.1106C216.27 60.9858 215.857 59.9033 215.124 59.0381C214.825 58.6966 214.489 58.3882 214.123 58.1172L212.121 70.0339L214.981 71.7333C218.915 74.0109 221.443 76.653 222.565 79.6603C223.687 82.6642 223.984 85.905 223.427 89.0576C223.075 91.2771 222.272 93.405 221.068 95.3149C219.92 97.134 218.438 98.7292 216.699 100.02C214.939 101.313 212.928 102.24 210.789 102.741C209.401 103.076 207.974 103.23 206.545 103.2L205.587 108.907C205.533 109.223 205.418 109.526 205.245 109.798C205.073 110.07 204.847 110.306 204.582 110.492C204.317 110.679 204.017 110.812 203.699 110.885C203.381 110.958 203.052 110.968 202.731 110.916C202.409 110.863 202.1 110.75 201.823 110.58C201.546 110.411 201.306 110.19 201.116 109.929C200.926 109.669 200.79 109.374 200.716 109.062C200.642 108.75 200.631 108.427 200.684 108.111L201.632 102.475C198.213 101.583 195.191 99.6052 193.036 96.8512C191.987 95.5499 191.164 94.0871 190.603 92.5216C190.431 92.0559 190.277 91.5777 190.143 91.0813C189.792 89.7901 189.605 88.4611 189.585 87.1247C189.574 86.6906 189.662 86.2594 189.841 85.862C190.019 85.465 190.285 85.1113 190.619 84.8262C190.952 84.5411 191.346 84.3317 191.771 84.2127C192.196 84.0941 192.643 84.0685 193.08 84.1385L196.02 84.6186L198.106 84.9556C198.724 85.0579 199.294 85.3471 199.737 85.7823C200.18 86.2179 200.473 86.778 200.577 87.3849C200.723 88.2249 200.971 89.0446 201.316 89.8264C201.727 90.7499 202.473 91.4902 203.409 91.9025L205.668 78.4603L203.172 77.0679C200.076 75.4104 197.52 72.927 195.8 69.9041C194.181 66.8669 193.665 63.3784 194.338 60.0145C194.692 57.7902 195.513 55.6631 196.75 53.768C197.928 51.9629 199.465 50.4096 201.267 49.2004C202.989 47.9903 204.949 47.1485 207.023 46.7288C208.349 46.4571 209.702 46.341 211.056 46.3822L211.899 41.3634C212.006 40.725 212.368 40.1545 212.903 39.7775C213.168 39.591 213.468 39.4576 213.786 39.3845C214.104 39.3119 214.433 39.3011 214.755 39.3534C215.077 39.4057 215.386 39.5198 215.663 39.6889C215.94 39.8579 216.18 40.0793 216.37 40.3399C216.56 40.6001 216.696 40.8948 216.77 41.207C216.845 41.5191 216.855 41.8424 216.802 42.1586L215.962 47.1648C217.307 47.5607 218.593 48.1286 219.786 48.8549C221.559 49.9236 223.082 51.3498 224.252 53.0391C225.434 54.7682 226.267 56.7033 226.705 58.7404ZM212.77 87.5528C213.043 86.1612 212.846 84.7198 212.209 83.4483C211.719 82.5756 211.047 81.8149 210.236 81.2169L208.362 92.3644C208.969 92.1964 209.551 91.9525 210.095 91.6381C210.832 91.2059 211.456 90.6124 211.92 89.9036C212.384 89.1947 212.675 88.3903 212.77 87.5528ZM207.544 67.2743L209.275 56.9813C208.456 57.1204 207.69 57.4751 207.06 58.0079C205.939 58.9261 205.197 60.2147 204.974 61.6316C204.804 62.6752 204.898 63.7436 205.245 64.7434C205.725 65.8011 206.528 66.686 207.544 67.2743Z" fill="#CCEFF6"/>
<path d="M168.765 139.958C169.449 142.935 174.525 144.103 177.852 139.979C179.962 137.456 181.103 134.286 181.079 131.022H181.209C181.209 131.022 182.738 130.418 183.104 129.339C183.104 129.339 188.074 128.696 189.879 128.402C191.683 128.108 212.511 141.781 217.619 151.008C218.893 152.679 219.964 154.491 220.812 156.406C221.366 157.812 221.577 159.152 220.91 159.928C218.607 162.616 215.791 161.825 213.815 159.591C213.718 159.482 213.62 159.366 213.522 159.248C211.535 156.756 206.437 150.674 206.437 150.674L202.183 148.081C203.176 148.993 204.107 149.966 204.973 150.995C206.112 152.52 210.591 157.011 212.604 160.091C213.121 160.757 213.461 161.539 213.592 162.367C213.55 162.973 213.361 163.559 213.042 164.079C212.723 164.599 212.282 165.036 211.757 165.355C211.231 165.674 210.636 165.866 210.02 165.914C209.404 165.962 208.785 165.865 208.215 165.632C208.144 165.603 208.076 165.568 208.012 165.526C206.309 164.49 197.925 157.105 196.624 155.901C196.364 155.426 196.006 155.01 195.573 154.679C195.311 154.472 195.032 154.287 194.739 154.125L194.726 154.115C192.522 152.884 190.109 153.347 188.025 154.946C185.726 156.719 186.735 155.672 185.74 156.689C185.655 155.889 185.307 155.139 184.749 154.551C182.689 152.28 179.896 152.168 177.268 153.557C175.24 154.702 173.283 155.965 171.408 157.339L163.759 158.058L163.693 158.046C163.88 156.709 163.585 155.35 162.859 154.205C161.197 151.743 158.702 151.997 157.388 152.074C157.173 152.088 156.96 152.125 156.753 152.186L156.736 152.074C155.718 151.582 154.731 151.028 153.783 150.416C152.539 149.654 151.189 148.776 150.109 148.064C148.92 147.279 148.067 146.698 148.067 146.698C148.147 137.176 148.853 127.67 150.18 118.237L151.905 118.894C154.699 119.96 159.982 121.967 160.658 122.201C160.981 122.368 161.341 122.456 161.707 122.456C162.072 122.456 162.432 122.368 162.755 122.201C163.712 121.845 174.969 116.024 177.245 115.493C179.52 114.961 184.036 115.693 184.036 115.693C181.777 116.726 179.795 117.848 177.681 118.574C174.367 119.713 171.36 119.174 170.452 123.929C169.545 128.685 169.68 134.526 168.769 138.486C168.653 138.97 168.652 139.474 168.765 139.958Z" fill="#FFCEB6"/>
<path d="M213.533 159.247C213.631 159.365 213.728 159.481 213.826 159.589C213.826 159.589 212.643 160.127 212.62 160.092C210.607 157.013 206.128 152.521 204.989 150.996C204.123 149.967 203.191 148.994 202.199 148.082L206.453 150.674C206.453 150.674 211.546 156.755 213.533 159.247Z" fill="#FFCEB6"/>
<path d="M208.024 165.526L207.793 165.86C207.706 166.308 207.513 166.73 207.231 167.092C206.949 167.454 206.584 167.746 206.167 167.946C205.573 168.312 204.909 168.553 204.216 168.654C203.523 168.755 202.816 168.714 202.141 168.533C201.535 168.244 200.95 167.915 200.39 167.547L199.496 167.451C199.947 167.04 200.347 166.578 200.686 166.074C201.957 163.969 201.913 162.665 200.51 161.57C199.984 161.08 199.335 160.735 198.63 160.569C197.925 160.403 197.188 160.421 196.492 160.623L196.344 160.533C196.419 160.411 196.484 160.282 196.539 160.149C196.874 159.493 197.056 158.772 197.073 158.038C197.09 157.304 196.941 156.576 196.637 155.906C197.937 157.105 206.317 164.49 208.024 165.526Z" fill="#FFCEB6"/>
<path d="M202.14 168.533C200.95 169.981 199.323 171.021 197.493 171.504C197.108 171.64 196.697 171.692 196.289 171.657C195.881 171.621 195.486 171.499 195.131 171.299L194.673 171.292C196.363 170.115 197.974 168.832 199.495 167.452L200.39 167.548C200.95 167.915 201.534 168.245 202.14 168.533Z" fill="#FFCEB6"/>
<path d="M200.51 161.561C201.912 162.657 201.952 163.962 200.686 166.066C200.347 166.57 199.947 167.033 199.496 167.443C197.974 168.823 196.363 170.106 194.674 171.283C194.112 171.683 193.754 171.926 193.754 171.926C188.221 175.118 185.768 175.827 183.79 174.912C183.177 174.672 182.627 174.298 182.182 173.82C181.736 173.341 181.407 172.769 181.219 172.147L181.122 171.929C183.342 170.974 185.494 169.87 187.56 168.627C187.56 168.627 194.796 163.099 196.341 160.522L196.489 160.611C197.185 160.41 197.923 160.391 198.629 160.558C199.335 160.725 199.984 161.071 200.51 161.561Z" fill="#FFCEB6"/>
<path d="M196.638 155.896C196.942 156.567 197.091 157.296 197.074 158.029C197.057 158.763 196.875 159.484 196.54 160.14C196.485 160.273 196.42 160.402 196.344 160.524C194.799 163.102 187.565 168.629 187.565 168.629C185.497 169.873 183.346 170.977 181.125 171.932C176.53 173.81 175.46 172.7 173.81 171.939C172.238 171.123 171.056 169.731 170.524 168.065V168.018C171.89 167.918 173.224 167.56 174.452 166.962C174.452 166.962 183.418 162.258 184.765 160.088C185.467 159.091 185.815 157.894 185.757 156.683C186.751 155.666 185.743 156.713 188.041 154.94C190.125 153.34 192.539 152.878 194.743 154.109L194.756 154.119C195.049 154.281 195.327 154.466 195.589 154.673C196.022 155.005 196.379 155.422 196.638 155.896Z" fill="#FFCEB6"/>
<path d="M171.413 157.337C173.29 155.963 175.249 154.7 177.279 153.555C179.907 152.165 182.699 152.278 184.759 154.549C185.317 155.137 185.665 155.887 185.751 156.687C185.809 157.898 185.461 159.095 184.759 160.092C183.412 162.261 174.447 166.966 174.447 166.966C173.219 167.563 171.885 167.922 170.518 168.022C167.92 168.107 165.327 167.75 162.853 166.966C160.155 166.28 158.868 161.324 158.868 161.324C159.901 161.158 160.906 160.859 161.859 160.432C162.345 160.218 162.769 159.887 163.091 159.47C163.413 159.052 163.623 158.562 163.7 158.043L163.767 158.056L171.413 157.337Z" fill="#FFCEB6"/>
<path d="M182.795 36.874L183.43 39.891L145.616 47.5433L155.868 96.4075L152.793 97.0277L152.159 94.0082L141.909 45.1478L179.72 37.4954L182.795 36.874Z" fill="#CCEFF6"/>
<path d="M179.72 37.4951L141.909 45.1478L152.159 94.0083L149.084 94.6322L138.199 42.7482L179.089 34.4756L179.72 37.4951Z" fill="#006B99"/>
<path d="M156.761 152.185C156.968 152.124 157.181 152.086 157.397 152.072C158.711 151.999 161.2 151.742 162.867 154.204C163.593 155.349 163.888 156.708 163.701 158.045C163.623 158.562 163.414 159.053 163.092 159.471C162.77 159.888 162.346 160.219 161.859 160.433C160.907 160.859 159.901 161.159 158.869 161.324C156.574 161.703 154.187 161.499 153.139 160.486C151.379 158.78 149.486 154.86 153.596 150.718L153.792 150.414C154.741 151.026 155.727 151.579 156.746 152.071L156.761 152.185Z" fill="#FFCEB6"/>
<path d="M151.325 116.58L151.287 116.61C151.251 116.563 151.205 116.523 151.151 116.495C151.097 116.467 151.038 116.451 150.977 116.448C150.917 116.445 150.856 116.456 150.8 116.479C150.744 116.502 150.694 116.536 150.653 116.58C150.395 117.099 150.237 117.661 150.188 118.237C148.862 127.669 148.156 137.175 148.076 146.697C148.119 148.891 148.297 150.337 148.657 150.532C148.881 150.684 149.157 150.743 149.426 150.696L149.439 150.739C148.438 151.393 145.766 151.722 145.04 149.647C144.86 147.965 144.847 146.269 145 144.584C145.346 136.423 146.7 121.061 147.444 116.851C147.484 116.485 147.577 116.126 147.72 115.786C148.523 114.752 151.231 115.347 151.325 116.58Z" fill="#CCEFF6"/>
<path d="M147.263 116.818L147.448 116.852C146.702 121.066 145.348 136.428 145.004 144.585H144.906C144.906 144.585 139.113 142.031 136.169 141.687C131.901 141.193 88.5426 121.419 88.5426 121.419L105.133 89.6855L144.567 115.501L147.263 116.818Z" fill="#FFCEB6"/>
<path d="M259.99 85.7153L274.305 118.092" stroke="#FFCEB6" stroke-width="3.39567" stroke-linecap="round" stroke-linejoin="round"/>
<path d="M88.5388 121.415L105.132 89.6855" stroke="#FFCEB6" stroke-width="3.39567" stroke-linecap="round" stroke-linejoin="round"/>
<path d="M225.804 189.832C215.436 196.556 203.455 200.494 191.054 201.253C178.653 202.012 166.267 199.565 155.129 194.157C143.991 188.749 134.492 180.569 127.577 170.432C120.663 160.294 116.575 148.554 115.721 136.381" stroke="#006B99" stroke-width="3.39567" stroke-linecap="round" stroke-linejoin="round"/>
<path d="M257.647 133.701C257.353 143.661 254.885 153.442 250.412 162.386C245.938 171.329 239.562 179.225 231.715 185.542" stroke="#006B99" stroke-width="3.39567" stroke-linecap="round" stroke-linejoin="round"/>
<path d="M217.874 178.714C210.135 183.733 201.26 186.812 192.028 187.678C182.795 188.544 173.487 187.173 164.921 183.683C156.354 180.194 148.79 174.693 142.893 167.664C136.995 160.635 132.944 152.292 131.095 143.367" stroke="#006B99" stroke-width="3.39567" stroke-linecap="round" stroke-linejoin="round"/>
<path d="M242.311 142.646C239.838 155.463 232.857 167.018 222.588 175.292" stroke="#006B99" stroke-width="3.39567" stroke-linecap="round" stroke-linejoin="round"/>
<path d="M224.725 91.3047C228.08 94.2775 231.061 97.6317 233.607 101.297" stroke="#006B99" stroke-width="3.39567" stroke-linecap="round" stroke-linejoin="round"/>
<path d="M136.012 107.548C138.626 102.391 142.037 97.6629 146.123 93.5298" stroke="#006B99" stroke-width="3.39567" stroke-linecap="round" stroke-linejoin="round"/>
<path d="M221.379 70.7231C230.322 75.6644 238.077 82.4389 244.116 90.5861" stroke="#006B99" stroke-width="3.39567" stroke-linecap="round" stroke-linejoin="round"/>
<path d="M123.814 98.929C128.359 90.5297 134.599 83.1265 142.151 77.1709" stroke="#006B99" stroke-width="3.39567" stroke-linecap="round" stroke-linejoin="round"/>
<path d="M211.765 118.877C211.765 118.877 235.183 103.113 241.306 98.7964C247.428 94.4798 259.994 85.7153 259.994 85.7153" stroke="#006B99" stroke-width="3.39567" stroke-linecap="round" stroke-linejoin="round"/>
<path d="M228.735 148.099C228.735 148.099 237.882 143.525 242.042 139.931C246.202 136.338 274.307 118.092 274.307 118.092" stroke="#006B99" stroke-width="3.39567" stroke-linecap="round" stroke-linejoin="round"/>
<path d="M88.5388 121.415C88.5388 121.415 131.898 141.194 136.166 141.683C139.11 142.027 144.903 144.581 144.903 144.581" stroke="#006B99" stroke-width="3.39567" stroke-linecap="round" stroke-linejoin="round"/>
<path d="M147.265 116.818L144.567 115.501L105.132 89.6855" stroke="#006B99" stroke-width="3.39567" stroke-linecap="round" stroke-linejoin="round"/>
<path d="M151.946 118.808C151.889 118.038 151.664 117.288 151.287 116.61C151.251 116.562 151.204 116.523 151.151 116.495C151.097 116.467 151.038 116.451 150.977 116.448C150.917 116.445 150.856 116.456 150.8 116.479C150.744 116.501 150.694 116.536 150.653 116.58C150.395 117.099 150.237 117.661 150.188 118.237C148.862 127.669 148.156 137.175 148.076 146.696C148.119 148.89 148.296 150.337 148.656 150.532C148.881 150.684 149.157 150.742 149.426 150.696C150.306 150.472 150.021 148.343 150.021 148.343" stroke="#006B99" stroke-width="3.39567" stroke-linecap="round" stroke-linejoin="round"/>
<path d="M151.325 116.58C151.227 115.347 148.523 114.756 147.726 115.785C147.583 116.126 147.49 116.485 147.45 116.851C146.704 121.065 145.35 136.427 145.006 144.584C144.853 146.269 144.866 147.964 145.046 149.647C145.768 151.722 148.44 151.392 149.446 150.739" stroke="#006B99" stroke-width="3.39567" stroke-linecap="round" stroke-linejoin="round"/>
<path d="M150.188 118.237L151.913 118.893C154.709 119.959 159.991 121.966 160.667 122.2C160.99 122.368 161.35 122.455 161.715 122.455C162.081 122.455 162.441 122.368 162.764 122.2C163.721 121.844 174.979 116.022 177.254 115.492C179.529 114.961 184.045 115.692 184.045 115.692" stroke="#006B99" stroke-width="3.39567" stroke-linecap="round" stroke-linejoin="round"/>
<path d="M148.076 146.697C148.076 146.697 148.929 147.278 150.118 148.063C151.193 148.775 152.548 149.653 153.791 150.415C154.74 151.027 155.727 151.581 156.745 152.073" stroke="#006B99" stroke-width="3.39567" stroke-linecap="round" stroke-linejoin="round"/>
<path d="M228.399 141.805C228.399 143.198 229.248 145.442 228.661 148.082C228.102 150.594 226.245 153.459 221.124 156.3" stroke="#006B99" stroke-width="3.39567" stroke-linecap="round" stroke-linejoin="round"/>
<path d="M216.365 121.111C214.937 120.176 213.38 119.447 211.741 118.946C210.575 118.567 209.379 118.281 208.166 118.092C203.031 117.286 192.425 112.894 188.205 114.115C186.779 114.537 185.388 115.066 184.045 115.696C181.786 116.729 179.804 117.85 177.69 118.576C174.376 119.715 171.369 119.176 170.461 123.932C169.554 128.688 169.689 134.529 168.778 138.489C168.661 138.971 168.657 139.473 168.768 139.957C169.452 142.934 174.528 144.102 177.855 139.977C179.965 137.455 181.106 134.285 181.082 131.021C181.075 130.1 180.969 129.183 180.766 128.285" stroke="#006B99" stroke-width="3.39567" stroke-linecap="round" stroke-linejoin="round"/>
<path d="M181.212 131.021C181.212 131.021 182.741 130.417 183.107 129.338C183.107 129.338 188.077 128.695 189.882 128.401C191.687 128.107 212.514 141.78 217.621 151.007" stroke="#006B99" stroke-width="3.39567" stroke-linecap="round" stroke-linejoin="round"/>
<path d="M217.622 151.007C218.896 152.678 219.968 154.49 220.815 156.405C221.369 157.811 221.58 159.151 220.913 159.927C218.61 162.615 215.794 161.824 213.818 159.59C213.721 159.481 213.623 159.365 213.525 159.247C211.538 156.755 206.441 150.673 206.441 150.673L202.187 148.08" stroke="#006B99" stroke-width="3.39567" stroke-linecap="round" stroke-linejoin="round"/>
<path d="M194.751 139.226C194.838 140.115 195.065 140.985 195.423 141.805C195.702 142.122 199.418 145.413 202.194 148.082C203.186 148.994 204.118 149.967 204.983 150.996C206.122 152.521 210.602 157.013 212.615 160.092C213.132 160.758 213.471 161.54 213.603 162.368C213.561 162.974 213.372 163.56 213.053 164.08C212.733 164.599 212.293 165.037 211.767 165.356C211.242 165.675 210.647 165.866 210.031 165.915C209.414 165.963 208.796 165.866 208.225 165.633C208.155 165.604 208.087 165.569 208.023 165.527C206.32 164.491 197.936 157.106 196.635 155.902L196.629 155.895" stroke="#006B99" stroke-width="3.39567" stroke-linecap="round" stroke-linejoin="round"/>
<path d="M207.792 165.859C207.706 166.308 207.513 166.729 207.231 167.092C206.949 167.454 206.584 167.746 206.166 167.946C205.573 168.312 204.909 168.553 204.216 168.654C203.523 168.755 202.816 168.714 202.14 168.532C201.534 168.244 200.949 167.915 200.39 167.546" stroke="#006B99" stroke-width="3.39567" stroke-linecap="round" stroke-linejoin="round"/>
<path d="M202.141 168.532C200.95 169.98 199.323 171.02 197.493 171.503C197.108 171.639 196.697 171.691 196.289 171.656C195.881 171.621 195.486 171.499 195.131 171.299" stroke="#006B99" stroke-width="3.39567" stroke-linecap="round" stroke-linejoin="round"/>
<path d="M189.882 128.401C189.882 128.401 191.401 126.922 191.401 126.081" stroke="#006B99" stroke-width="3.39567" stroke-linecap="round" stroke-linejoin="round"/>
<path d="M183.107 129.338C183.242 128.645 183.242 127.932 183.107 127.239" stroke="#006B99" stroke-width="3.39567" stroke-linecap="round" stroke-linejoin="round"/>
<path d="M168.688 139.651C168.687 139.759 168.714 139.865 168.765 139.961C169.373 141.169 173.638 140.779 175.006 138.767C176.48 136.592 174.679 133.701 174.679 133.701" stroke="#006B99" stroke-width="3.39567" stroke-linecap="round" stroke-linejoin="round"/>
<path d="M169.595 132.915C169.595 132.915 170.69 132.833 172.137 132.667" stroke="#006B99" stroke-width="3.39567" stroke-linecap="round" stroke-linejoin="round"/>
<path d="M217.135 160.092C218.135 159.801 219.054 159.289 219.819 158.593" stroke="#006B99" stroke-width="3.39567" stroke-linecap="round" stroke-linejoin="round"/>
<path d="M213.821 159.59C213.821 159.59 212.638 160.127 212.615 160.092" stroke="#006B99" stroke-width="3.39567" stroke-linecap="round" stroke-linejoin="round"/>
<path d="M154.43 153.4C155.135 152.876 155.923 152.467 156.761 152.189C156.968 152.129 157.181 152.091 157.397 152.077C158.711 152.004 161.2 151.747 162.867 154.209C163.593 155.354 163.888 156.712 163.701 158.049C163.623 158.567 163.414 159.058 163.092 159.475C162.77 159.893 162.346 160.224 161.859 160.438C160.907 160.864 159.901 161.164 158.869 161.329C156.574 161.708 154.187 161.504 153.139 160.491C151.379 158.785 149.486 154.864 153.596 150.723" stroke="#006B99" stroke-width="3.39567" stroke-linecap="round" stroke-linejoin="round"/>
<path d="M171.413 157.337C170.637 157.892 169.991 158.364 169.591 158.655" stroke="#006B99" stroke-width="3.39567" stroke-linecap="round" stroke-linejoin="round"/>
<path d="M158.869 161.326C158.869 161.326 160.157 166.282 162.854 166.968C165.328 167.752 167.921 168.109 170.519 168.024C171.886 167.924 173.22 167.565 174.448 166.968C174.448 166.968 183.413 162.263 184.761 160.095C185.462 159.097 185.81 157.9 185.752 156.689C185.667 155.889 185.319 155.139 184.761 154.551C182.701 152.28 179.908 152.167 177.28 153.557C175.252 154.702 173.295 155.965 171.419 157.339" stroke="#006B99" stroke-width="3.39567" stroke-linecap="round" stroke-linejoin="round"/>
<path d="M171.42 157.339H171.417L163.768 158.058" stroke="#006B99" stroke-width="3.39567" stroke-linecap="round" stroke-linejoin="round"/>
<path d="M177.462 156.943C176.825 157.683 176.478 158.621 176.484 159.59C176.532 159.997 176.68 160.387 176.917 160.725C177.154 161.063 177.471 161.338 177.842 161.527C178.213 161.716 178.625 161.813 179.043 161.809C179.461 161.805 179.871 161.7 180.237 161.504C181.975 160.56 184.758 158.649 183.992 156.943" stroke="#006B99" stroke-width="3.39567" stroke-linecap="round" stroke-linejoin="round"/>
<path d="M178.655 155.897C179.262 155.368 180.002 155.009 180.799 154.857C181.359 154.834 181.907 155.019 182.335 155.376" stroke="#006B99" stroke-width="3.39567" stroke-linecap="round" stroke-linejoin="round"/>
<path d="M194.738 154.115C192.533 152.884 190.12 153.347 188.037 154.946C185.738 156.719 186.746 155.672 185.752 156.689C185.732 156.71 185.712 156.732 185.688 156.755" stroke="#006B99" stroke-width="3.39567" stroke-linecap="round" stroke-linejoin="round"/>
<path d="M170.523 168.071C171.056 169.737 172.237 171.13 173.809 171.945C175.459 172.707 176.534 173.816 181.125 171.938C183.345 170.983 185.497 169.88 187.564 168.635C187.564 168.635 194.799 163.108 196.344 160.531C196.419 160.408 196.484 160.279 196.539 160.147C196.874 159.49 197.056 158.769 197.073 158.036C197.09 157.302 196.941 156.573 196.637 155.903C196.377 155.428 196.019 155.012 195.586 154.681C195.324 154.474 195.045 154.289 194.752 154.127" stroke="#006B99" stroke-width="3.39567" stroke-linecap="round" stroke-linejoin="round"/>
<path d="M188.799 158.253C188.303 159.089 188.125 160.072 188.299 161.025C188.416 161.418 188.63 161.778 188.922 162.071C189.214 162.364 189.574 162.582 189.972 162.707C190.37 162.831 190.793 162.858 191.204 162.784C191.614 162.711 192.001 162.54 192.328 162.286C193.881 161.065 196.29 158.718 195.242 157.164" stroke="#006B99" stroke-width="3.39567" stroke-linecap="round" stroke-linejoin="round"/>
<path d="M189.794 157.019C190.3 156.398 190.967 155.921 191.726 155.639C192.275 155.522 192.848 155.613 193.332 155.894" stroke="#006B99" stroke-width="3.39567" stroke-linecap="round" stroke-linejoin="round"/>
<path d="M181.219 172.156C181.407 172.778 181.736 173.349 182.181 173.828C182.627 174.307 183.176 174.681 183.789 174.921C185.769 175.835 188.221 175.126 193.753 171.935C193.753 171.935 194.112 171.692 194.673 171.292C196.363 170.115 197.974 168.832 199.495 167.451C199.947 167.041 200.347 166.579 200.685 166.074C201.956 163.97 201.913 162.666 200.51 161.57C199.983 161.081 199.335 160.736 198.63 160.57C197.925 160.404 197.187 160.422 196.492 160.624" stroke="#006B99" stroke-width="3.39567" stroke-linecap="round" stroke-linejoin="round"/>
<path d="M194.986 163.827C194.602 164.473 194.465 165.233 194.6 165.969C194.691 166.274 194.856 166.552 195.082 166.78C195.307 167.007 195.586 167.176 195.894 167.273C196.202 167.369 196.53 167.389 196.848 167.333C197.166 167.276 197.464 167.142 197.718 166.945C198.918 166.001 200.783 164.187 199.967 162.982" stroke="#006B99" stroke-width="3.39567" stroke-linecap="round" stroke-linejoin="round"/>
<path d="M195.758 162.87C196.151 162.389 196.669 162.021 197.257 161.804C197.681 161.713 198.124 161.784 198.497 162.003" stroke="#006B99" stroke-width="3.39567" stroke-linecap="round" stroke-linejoin="round"/>
<path d="M191.401 149.934L192.526 152.043L194.738 154.115L194.751 154.125" stroke="#006B99" stroke-width="3.39567" stroke-linecap="round" stroke-linejoin="round"/>
<path d="M161.859 160.435C160.883 159.995 159.993 159.391 159.229 158.65C158.709 157.986 158.35 157.215 158.177 156.395C158.14 156.21 158.055 156.037 157.929 155.894C157.804 155.751 157.643 155.642 157.462 155.579C157.281 155.515 157.086 155.499 156.897 155.532C156.708 155.565 156.53 155.645 156.382 155.765C155.912 156.107 155.582 156.604 155.455 157.164C155.307 157.808 155.383 158.482 155.672 159.078C155.961 159.674 156.445 160.158 157.047 160.451" stroke="#006B99" stroke-width="3.39567" stroke-linecap="round" stroke-linejoin="round"/>
<path d="M190.578 92.5295L156.5 99.4233L155.868 96.4076L145.616 47.5434L183.43 39.8907L186.502 39.2705L196.018 84.6128" stroke="#006B99" stroke-width="3.39567" stroke-linecap="round" stroke-linejoin="round"/>
<path d="M155.868 96.4075L152.793 97.0277L152.159 94.0082L141.909 45.1478L179.72 37.4954L182.795 36.874L183.43 39.891V39.8936" stroke="#006B99" stroke-width="3.39567" stroke-linecap="round" stroke-linejoin="round"/>
<path d="M152.159 94.0083L149.084 94.6322L138.199 42.7482L179.089 34.4756L179.72 37.4951" stroke="#006B99" stroke-width="3.39567" stroke-linecap="round" stroke-linejoin="round"/>
<path d="M153.569 53.1303L181.447 47.4902" stroke="#006B99" stroke-width="3.39567" stroke-linecap="round" stroke-linejoin="round"/>
<path d="M156.372 58.8596L184.25 53.2158" stroke="#006B99" stroke-width="3.39567" stroke-linecap="round" stroke-linejoin="round"/>
<path d="M153.932 62.4993L184.885 56.2354" stroke="#006B99" stroke-width="3.39567" stroke-linecap="round" stroke-linejoin="round"/>
<path d="M154.564 65.5183L185.516 59.2554" stroke="#006B99" stroke-width="3.39567" stroke-linecap="round" stroke-linejoin="round"/>
<path d="M155.199 68.5382L176.928 64.1396" stroke="#006B99" stroke-width="3.39567" stroke-linecap="round" stroke-linejoin="round"/>
<path d="M158.906 70.9345L186.784 65.2944" stroke="#006B99" stroke-width="3.39567" stroke-linecap="round" stroke-linejoin="round"/>
<path d="M156.467 74.5744L187.419 68.3145" stroke="#006B99" stroke-width="3.39567" stroke-linecap="round" stroke-linejoin="round"/>
<path d="M157.098 77.593L188.05 71.3301" stroke="#006B99" stroke-width="3.39567" stroke-linecap="round" stroke-linejoin="round"/>
<path d="M160.805 79.9923L188.686 74.3496" stroke="#006B99" stroke-width="3.39567" stroke-linecap="round" stroke-linejoin="round"/>
<path d="M158.365 83.6325L189.318 77.3696" stroke="#006B99" stroke-width="3.39567" stroke-linecap="round" stroke-linejoin="round"/>
<path d="M159 86.6524L189.952 80.3892" stroke="#006B99" stroke-width="3.39567" stroke-linecap="round" stroke-linejoin="round"/>
<path d="M168.882 92.5195L172.039 91.883L175.788 91.1234L183.578 89.546L185.057 89.2454L187.54 88.7441" stroke="#006B99" stroke-width="3.39567" stroke-linecap="round" stroke-linejoin="round"/>
<path d="M178.061 87.863C177.963 88.2134 177.358 90.418 178.193 90.441C179.093 90.467 181.146 85.3818 181.146 85.3818C181.146 85.3818 180.141 89.5105 181.357 89.5961C182.573 89.6814 182.397 86.659 183.451 86.3787C184.194 86.18 183.579 88.3383 183.579 89.5472C183.579 90.0655 183.693 90.4113 184.073 90.3153C184.547 90.2 184.832 89.7611 185.058 89.2458C185.428 88.3817 185.639 87.3051 186.298 87.1439" stroke="#006B99" stroke-width="3.39567" stroke-linecap="round" stroke-linejoin="round"/>
<path d="M174.15 89.3482C174.581 90.3747 175.226 91.1724 175.769 91.0479C177.006 90.7539 177.927 88.2364 178.058 87.8631C178.061 87.8519 178.064 87.8408 178.068 87.8304V87.8208" stroke="#006B99" stroke-width="3.39567" stroke-linecap="round" stroke-linejoin="round"/>
<path d="M174.15 89.3483C175.148 87.4999 175.699 85.332 174.506 85.6326C173.348 85.9262 173.533 87.8695 174.15 89.3483Z" stroke="#006B99" stroke-width="3.39567" stroke-linecap="round" stroke-linejoin="round"/>
<path d="M172.015 91.7739C172.684 91.5963 173.51 90.5401 174.152 89.3486" stroke="#006B99" stroke-width="3.39567" stroke-linecap="round" stroke-linejoin="round"/>
<path d="M166.954 88.9258L165.409 91.232L163.863 93.5353" stroke="#006B99" stroke-width="3.39567" stroke-linecap="round" stroke-linejoin="round"/>
<path d="M163.059 89.7144L165.408 91.2324L167.754 92.7476" stroke="#006B99" stroke-width="3.39567" stroke-linecap="round" stroke-linejoin="round"/>
<path d="M190.602 92.5203C191.163 94.0854 191.985 95.5486 193.034 96.8495C195.19 99.6032 198.212 101.58 201.63 102.473L200.683 108.109C200.629 108.425 200.64 108.749 200.714 109.061C200.788 109.373 200.924 109.667 201.114 109.928C201.304 110.188 201.544 110.41 201.821 110.579C202.098 110.748 202.407 110.862 202.729 110.914C203.05 110.967 203.379 110.956 203.697 110.883C204.015 110.811 204.315 110.677 204.58 110.491C204.846 110.304 205.071 110.068 205.243 109.796C205.416 109.524 205.532 109.221 205.585 108.905L206.543 103.199C207.972 103.229 209.399 103.075 210.787 102.74C212.926 102.238 214.938 101.311 216.698 100.016C218.437 98.7257 219.918 97.1309 221.066 95.3114C222.271 93.4026 223.073 91.2765 223.427 89.0578C223.984 85.9052 223.686 82.664 222.564 79.6597C221.441 76.6514 218.913 74.0089 214.98 71.7327L212.12 70.0333L214.122 58.117C214.489 58.3876 214.824 58.6965 215.123 59.0375C215.856 59.9028 216.269 60.9853 216.297 62.11C216.323 62.5334 216.496 62.9352 216.786 63.2496C217.076 63.5636 217.467 63.7712 217.893 63.8383L224.853 64.9668C225.118 65.0105 225.389 64.999 225.649 64.933C225.909 64.867 226.152 64.748 226.363 64.5838C226.573 64.4196 226.745 64.2138 226.869 63.9795C226.993 63.7452 227.065 63.4883 227.081 63.2248C227.158 61.72 227.032 60.2119 226.705 58.7398C226.265 56.705 225.432 54.7717 224.252 53.0445C223.081 51.3552 221.558 49.929 219.785 48.8599C218.592 48.134 217.306 47.5657 215.961 47.1701L216.801 42.164C216.855 41.8478 216.844 41.5245 216.77 41.2123C216.695 40.9002 216.559 40.6055 216.369 40.3449C216.179 40.0846 215.939 39.8633 215.662 39.6943C215.385 39.5248 215.076 39.411 214.755 39.3588C214.433 39.3065 214.103 39.3172 213.785 39.3899C213.468 39.4626 213.168 39.596 212.902 39.7829C212.366 40.1599 212.005 40.7304 211.898 41.3688L211.055 46.3876C209.702 46.346 208.348 46.4624 207.022 46.7342C204.949 47.1538 202.988 47.9957 201.266 49.2057C199.464 50.415 197.928 51.9683 196.749 53.773C195.512 55.6681 194.691 57.7956 194.337 60.0199C193.665 63.3838 194.18 66.8722 195.799 69.9095C197.519 72.9323 200.075 75.4158 203.171 77.0732L205.665 78.4627L203.407 91.9049C202.47 91.4926 201.724 90.7523 201.313 89.8289C200.968 89.0466 200.72 88.2266 200.574 87.3862C200.47 86.7793 200.177 86.2196 199.734 85.7843C199.291 85.3491 198.721 85.0603 198.104 84.958L196.017 84.621L193.077 84.141C192.64 84.0709 192.194 84.0965 191.768 84.2151C191.343 84.3341 190.949 84.5436 190.616 84.8283C190.282 85.1133 190.016 85.4674 189.838 85.8644C189.659 86.2618 189.571 86.693 189.582 87.1271C189.602 88.4635 189.789 89.7922 190.14 91.0837C190.275 91.5764 190.429 92.0546 190.602 92.5203Z" stroke="#006B99" stroke-width="3.39567" stroke-linecap="round" stroke-linejoin="round"/>
<path d="M205.242 64.7466C204.894 63.7467 204.8 62.6783 204.97 61.6348C205.193 60.2179 205.935 58.9296 207.056 58.011C207.686 57.4783 208.451 57.1235 209.271 56.9849L207.54 67.2774C206.525 66.6891 205.721 65.8046 205.242 64.7466Z" stroke="#006B99" stroke-width="3.39567" stroke-linecap="round" stroke-linejoin="round"/>
<path d="M210.098 91.6384C209.554 91.9527 208.972 92.1967 208.365 92.3642L210.239 81.2168C211.05 81.8151 211.722 82.5755 212.212 83.4481C212.849 84.7201 213.046 86.1614 212.773 87.5531C212.678 88.3905 212.387 89.195 211.923 89.9038C211.459 90.6122 210.835 91.2061 210.098 91.6384Z" stroke="#006B99" stroke-width="3.39567" stroke-linecap="round" stroke-linejoin="round"/>
</g>
<defs>
<clipPath id="clip0_2_1396">
<rect width="362.396" height="238" fill="white" transform="translate(0.1875)"/>
</clipPath>
</defs>
</svg>
